<?xml version="1.0" encoding="utf-8"?>
<!-- Hush app icon. The real H mark, vector-traced (Vectorizer) then
     cleaned (stroke artifacts + light bg removed, two traced darks
     merged) and recoloured to the brand gradient on a dark tile.
     Regenerate the set: npx tauri icon src-tauri/icons/icon-source.svg -->
<svg width="1024" height="1024" viewBox="0 0 1024 1024" xmlns="http://www.w3.org/2000/svg">
  <defs>
    <linearGradient id="tile" x1="0" y1="0" x2="0" y2="1">
      <stop offset="0" stop-color="#241608"/><stop offset="1" stop-color="#160b05"/>
    </linearGradient>
    <linearGradient id="hgrad" gradientUnits="userSpaceOnUse" x1="0" y1="60" x2="0" y2="560">
      <stop offset="0" stop-color="#ffc94d"/><stop offset="1" stop-color="#f49e17"/>
    </linearGradient>
  </defs>
  <rect x="72" y="72" width="880" height="880" rx="196" fill="url(#tile)"/>
  <g transform="translate(218,216) scale(1.04)">
<path fill="url(#hgrad)" d="
  M 24.46 17.53
  L 19.15 18.17
  A 0.38 0.38 0.0 0 0 19.10 18.92
  Q 22.34 19.75 27.08 19.83
  Q 77.23 20.63 107.54 19.72
  Q 120.20 19.34 153.97 20.03
  C 165.49 20.27 176.82 19.58 186.44 19.60
  A 1.20 1.20 0.0 0 1 187.64 20.78
  Q 187.97 36.75 187.59 52.78
  Q 187.42 60.13 188.02 81.73
  Q 188.22 89.17 188.06 92.51
  C 187.60 102.14 188.18 110.69 188.02 119.48
  C 187.71 135.64 187.75 149.66 189.34 165.47
  L 189.35 202.67
  A 0.74 0.74 0.0 0 0 190.09 203.41
  L 350.60 203.41
  A 0.23 0.23 0.0 0 0 350.83 203.18
  L 350.83 18.03
  A 0.45 0.45 0.0 0 1 351.28 17.58
  L 366.55 17.62
  Q 364.76 17.50 363.56 18.16
  A 0.25 0.24 37.9 0 0 363.62 18.61
  Q 367.51 19.59 371.88 19.73
  C 387.91 20.24 407.40 18.79 423.45 19.36
  C 439.01 19.92 454.73 19.58 471.27 18.97
  C 478.39 18.71 483.93 19.12 493.24 19.53
  Q 500.92 19.86 514.38 19.31
  Q 516.13 19.24 517.85 18.08
  A 0.16 0.16 0.0 0 0 517.76 17.78
  L 507.21 17.63
  L 523.78 17.46
  A 0.58 0.58 0.0 0 1 524.37 18.04
  L 524.37 244.92
  A 0.47 0.47 0.0 0 1 523.89 245.39
  L 500.97 245.24
  Q 501.25 244.80 500.67 244.08
  A 0.99 0.99 0.0 0 0 499.95 243.72
  L 478.70 242.81
  A 0.79 0.79 0.0 0 1 477.94 242.06
  Q 476.74 220.58 477.30 195.91
  Q 477.59 182.79 477.28 167.58
  C 476.82 144.97 477.21 131.22 477.51 98.38
  Q 477.55 93.56 476.94 85.99
  Q 476.44 79.80 476.44 73.58
  Q 476.44 71.13 474.47 67.48
  L 401.45 67.48
  A 0.76 0.75 0.0 0 0 400.69 68.23
  L 400.55 107.72
  Q 400.66 105.46 399.85 104.66
  A 0.28 0.28 0.0 0 0 399.37 104.86
  Q 398.65 132.37 398.85 158.07
  C 398.97 173.48 398.80 186.48 398.89 201.74
  Q 398.97 215.09 400.59 223.53
  L 400.76 251.25
  A 0.54 0.54 0.0 0 1 400.22 251.79
  L 140.18 251.79
  A 0.68 0.67 0.4 0 1 139.50 251.11
  L 139.59 240.29
  L 139.71 234.24
  A 2.37 2.30 -32.8 0 1 139.93 233.30
  Q 141.73 229.37 141.67 224.45
  Q 141.40 201.83 141.68 162.69
  C 141.90 131.83 141.68 112.74 141.45 74.89
  Q 141.43 72.13 139.72 67.35
  L 65.33 67.70
  Q 63.69 70.02 63.56 72.92
  Q 63.18 81.15 63.24 92.75
  C 63.53 153.38 63.17 214.00 63.55 274.62
  Q 63.67 292.73 63.21 322.99
  Q 62.71 356.18 63.43 404.25
  Q 63.84 431.39 63.12 489.50
  Q 63.05 495.40 64.65 500.86
  A 0.91 0.90 88.2 0 0 65.31 501.49
  Q 70.83 502.78 75.98 500.74
  L 139.66 500.70
  Q 140.02 500.68 140.31 500.57
  A 0.89 0.89 0.0 0 0 140.87 499.82
  Q 141.90 486.74 141.72 473.50
  Q 141.52 458.72 141.53 458.31
  C 141.87 447.36 141.34 433.44 141.70 420.29
  C 142.23 400.94 141.41 380.88 141.69 360.51
  Q 141.92 343.22 141.54 324.03
  C 141.50 322.10 141.83 318.14 142.40 315.81
  A 0.45 0.45 0.0 0 0 142.00 315.26
  L 139.69 315.11
  L 380.32 315.11
  A 0.37 0.37 0.0 0 1 380.69 315.48
  L 380.69 393.22
  A 0.46 0.46 0.0 0 1 380.23 393.68
  L 351.24 393.68
  A 0.38 0.38 0.0 0 1 350.86 393.30
  L 350.86 363.77
  A 0.34 0.33 -0.0 0 0 350.52 363.44
  L 190.03 363.44
  A 0.69 0.69 0.0 0 0 189.34 364.13
  L 189.34 369.69
  Q 187.85 373.37 187.69 377.27
  Q 187.19 389.38 187.35 401.49
  C 187.73 429.24 187.75 460.40 188.01 505.46
  C 188.10 520.93 187.59 535.05 187.16 547.35
  A 0.64 0.63 2.2 0 1 186.49 547.96
  C 178.42 547.56 170.20 548.57 161.04 548.61
  C 126.49 548.77 104.72 548.48 75.30 548.58
  Q 52.78 548.65 21.73 548.14
  A 0.75 0.74 4.4 0 1 21.00 547.29
  Q 22.47 536.80 21.25 525.49
  A 0.41 0.41 0.0 0 0 20.43 525.50
  Q 19.65 535.72 20.34 547.44
  A 0.91 0.91 0.0 0 1 19.39 548.40
  L 18.36 548.36
  A 0.88 0.87 0.4 0 1 17.52 547.52
  Q 17.08 536.60 17.68 525.06
  C 18.35 512.16 17.42 501.15 17.87 487.78
  C 18.58 466.61 17.00 445.39 18.63 426.10
  Q 18.88 423.23 18.68 422.02
  C 17.26 413.21 17.59 404.45 18.65 395.44
  A 12.01 11.89 44.7 0 0 18.62 392.40
  C 18.16 389.19 17.70 386.68 17.62 383.99
  Q 16.99 364.18 17.66 346.42
  Q 17.80 342.64 17.00 338.31
  Q 16.72 336.82 15.63 336.53
  L 15.55 18.02
  A 0.60 0.59 0.0 0 1 16.16 17.42
  L 24.46 17.53
  Z"
/>
<path fill="url(#hgrad)" d="
  M 189.34 165.47
  C 187.75 149.66 187.71 135.64 188.02 119.48
  C 188.18 110.69 187.60 102.14 188.06 92.51
  Q 188.22 89.17 188.02 81.73
  Q 187.42 60.13 187.59 52.78
  Q 187.97 36.75 187.64 20.78
  A 1.20 1.20 0.0 0 0 186.44 19.60
  C 176.82 19.58 165.49 20.27 153.97 20.03
  Q 120.20 19.34 107.54 19.72
  Q 77.23 20.63 27.08 19.83
  Q 22.34 19.75 19.10 18.92
  A 0.38 0.38 0.0 0 1 19.15 18.17
  L 24.46 17.53
  L 188.88 17.50
  A 0.44 0.44 0.0 0 1 189.32 17.94
  L 189.34 165.47
  Z"
/>
<path fill="url(#hgrad)" d="
  M 507.21 17.63
  L 517.76 17.78
  A 0.16 0.16 0.0 0 1 517.85 18.08
  Q 516.13 19.24 514.38 19.31
  Q 500.92 19.86 493.24 19.53
  C 483.93 19.12 478.39 18.71 471.27 18.97
  C 454.73 19.58 439.01 19.92 423.45 19.36
  C 407.40 18.79 387.91 20.24 371.88 19.73
  Q 367.51 19.59 363.62 18.61
  A 0.25 0.24 37.9 0 1 363.56 18.16
  Q 364.76 17.50 366.55 17.62
  L 507.21 17.63
  Z"
/>
<path fill="url(#hgrad)" d="
  M 500.97 245.24
  L 475.37 245.29
  A 0.75 0.75 0.0 0 1 474.61 244.54
  L 474.47 67.48
  Q 476.44 71.13 476.44 73.58
  Q 476.44 79.80 476.94 85.99
  Q 477.55 93.56 477.51 98.38
  C 477.21 131.22 476.82 144.97 477.28 167.58
  Q 477.59 182.79 477.30 195.91
  Q 476.74 220.58 477.94 242.06
  A 0.79 0.79 0.0 0 0 478.70 242.81
  L 499.95 243.72
  A 0.99 0.99 0.0 0 1 500.67 244.08
  Q 501.25 244.80 500.97 245.24
  Z"
/>
<path fill="url(#hgrad)" d="
  M 65.33 67.70
  L 65.38 499.81
  A 0.78 0.78 0.0 0 0 66.15 500.59
  L 75.98 500.74
  Q 70.83 502.78 65.31 501.49
  A 0.91 0.90 88.2 0 1 64.65 500.86
  Q 63.05 495.40 63.12 489.50
  Q 63.84 431.39 63.43 404.25
  Q 62.71 356.18 63.21 322.99
  Q 63.67 292.73 63.55 274.62
  C 63.17 214.00 63.53 153.38 63.24 92.75
  Q 63.18 81.15 63.56 72.92
  Q 63.69 70.02 65.33 67.70
  Z"
/>
<path fill="url(#hgrad)" d="
  M 139.59 240.29
  L 139.72 67.35
  Q 141.43 72.13 141.45 74.89
  C 141.68 112.74 141.90 131.83 141.68 162.69
  Q 141.40 201.83 141.67 224.45
  Q 141.73 229.37 139.93 233.30
  A 2.37 2.30 -32.8 0 0 139.71 234.24
  L 139.59 240.29
  Z"
/>
<path fill="url(#hgrad)" d="
  M 400.55 107.72
  L 400.59 223.53
  Q 398.97 215.09 398.89 201.74
  C 398.80 186.48 398.97 173.48 398.85 158.07
  Q 398.65 132.37 399.37 104.86
  A 0.28 0.28 0.0 0 1 399.85 104.66
  Q 400.66 105.46 400.55 107.72
  Z"
/>
<path fill="url(#hgrad)" d="
  M 482.97 265.89
  Q 479.97 267.16 476.74 267.40
  Q 465.18 268.27 454.25 267.96
  A 1.12 1.11 0.8 0 0 453.10 269.07
  L 453.10 287.38
  A 1.56 1.52 31.7 0 0 453.28 288.10
  Q 455.78 292.83 461.37 292.99
  Q 461.70 293.00 472.93 293.48
  Q 474.88 293.56 478.47 295.14
  L 451.58 295.09
  A 0.72 0.72 0.0 0 1 450.86 294.37
  L 450.86 266.09
  A 0.36 0.36 0.0 0 1 451.22 265.73
  L 482.97 265.89
  Z"
/>
<path fill="url(#hgrad)" d="
  M 478.47 295.14
  Q 474.88 293.56 472.93 293.48
  Q 461.70 293.00 461.37 292.99
  Q 455.78 292.83 453.28 288.10
  A 1.56 1.52 31.7 0 1 453.10 287.38
  L 453.10 269.07
  A 1.12 1.11 0.8 0 1 454.25 267.96
  Q 465.18 268.27 476.74 267.40
  Q 479.97 267.16 482.97 265.89
  L 523.85 265.88
  A 0.56 0.55 90.0 0 1 524.40 266.44
  L 524.40 294.68
  A 0.40 0.40 0.0 0 1 524.00 295.08
  L 478.47 295.14
  Z"
/>
<path fill="url(#hgrad)" d="
  M 139.69 315.11
  L 142.00 315.26
  A 0.45 0.45 0.0 0 1 142.40 315.81
  C 141.83 318.14 141.50 322.10 141.54 324.03
  Q 141.92 343.22 141.69 360.51
  C 141.41 380.88 142.23 400.94 141.70 420.29
  C 141.34 433.44 141.87 447.36 141.53 458.31
  Q 141.52 458.72 141.72 473.50
  Q 141.90 486.74 140.87 499.82
  A 0.89 0.89 0.0 0 1 140.31 500.57
  Q 140.02 500.68 139.66 500.70
  L 139.69 315.11
  Z"
/>
<rect fill="url(#hgrad)" x="416.71" y="315.38" width="56.22" height="29.06" rx="0.72"/>
<rect fill="url(#hgrad)" x="492.65" y="315.36" width="31.78" height="29.06" rx="0.82"/>
<path fill="url(#hgrad)" d="
  M 189.34 369.69
  L 189.35 550.03
  A 0.61 0.61 0.0 0 1 188.74 550.64
  L 16.13 550.64
  A 0.34 0.34 0.0 0 1 15.79 550.30
  L 15.63 336.53
  Q 16.72 336.82 17.00 338.31
  Q 17.80 342.64 17.66 346.42
  Q 16.99 364.18 17.62 383.99
  C 17.70 386.68 18.16 389.19 18.62 392.40
  A 12.01 11.89 44.7 0 1 18.65 395.44
  C 17.59 404.45 17.26 413.21 18.68 422.02
  Q 18.88 423.23 18.63 426.10
  C 17.00 445.39 18.58 466.61 17.87 487.78
  C 17.42 501.15 18.35 512.16 17.68 525.06
  Q 17.08 536.60 17.52 547.52
  A 0.88 0.87 0.4 0 0 18.36 548.36
  L 19.39 548.40
  A 0.91 0.91 0.0 0 0 20.34 547.44
  Q 19.65 535.72 20.43 525.50
  A 0.41 0.41 0.0 0 1 21.25 525.49
  Q 22.47 536.80 21.00 547.29
  A 0.75 0.74 4.4 0 0 21.73 548.14
  Q 52.78 548.65 75.30 548.58
  C 104.72 548.48 126.49 548.77 161.04 548.61
  C 170.20 548.57 178.42 547.56 186.49 547.96
  A 0.64 0.63 2.2 0 0 187.16 547.35
  C 187.59 535.05 188.10 520.93 188.01 505.46
  C 187.75 460.40 187.73 429.24 187.35 401.49
  Q 187.19 389.38 187.69 377.27
  Q 187.85 373.37 189.34 369.69
  Z"
/>
<rect fill="url(#hgrad)" x="-36.06" y="-14.43" transform="translate(436.84,379.20) rotate(-0.1)" width="72.12" height="28.86" rx="0.52"/>
<rect fill="url(#hgrad)" x="-15.87" y="-14.47" transform="translate(508.55,379.22) rotate(-0.1)" width="31.74" height="28.94" rx="0.64"/>
<rect fill="url(#hgrad)" x="450.71" y="414.10" width="73.68" height="29.02" rx="0.36"/>
<rect fill="url(#hgrad)" x="350.95" y="414.13" width="80.06" height="29.00" rx="0.41"/>
<rect fill="url(#hgrad)" x="400.77" y="463.66" width="71.98" height="28.96" rx="0.65"/>
<rect fill="url(#hgrad)" x="-15.85" y="-14.49" transform="translate(508.60,478.15) rotate(-0.1)" width="31.70" height="28.98" rx="0.56"/>
<rect fill="url(#hgrad)" x="-14.93" y="-14.49" transform="translate(365.82,478.15) rotate(0.1)" width="29.86" height="28.98" rx="0.33"/>
<rect fill="url(#hgrad)" x="350.99" y="513.19" width="80.00" height="28.76" rx="0.50"/>
<path fill="url(#hgrad)" d="
  M 458.31 542.03
  Q 454.00 539.30 453.91 533.59
  Q 453.75 523.23 454.36 517.67
  Q 454.72 514.43 450.63 513.22
  L 523.72 513.14
  A 0.73 0.73 0.0 0 1 524.45 513.87
  L 524.45 541.69
  A 0.29 0.29 0.0 0 1 524.16 541.98
  L 458.31 542.03
  Z"
/>
<path fill="url(#hgrad)" d="
  M 458.31 542.03
  L 451.50 542.09
  A 0.80 0.79 -0.0 0 1 450.70 541.30
  L 450.63 513.22
  Q 454.72 514.43 454.36 517.67
  Q 453.75 523.23 453.91 533.59
  Q 454.00 539.30 458.31 542.03
  Z"
/>
  </g>
</svg>
