<?xml version="1.0" encoding="utf-8"?>
<!-- Generator: Adobe Illustrator 30.3.0, SVG Export Plug-In . SVG Version: 9.03 Build 0)  -->
<svg version="1.1" id="Layer_1" xmlns="http://www.w3.org/2000/svg" xmlns:xlink="http://www.w3.org/1999/xlink" x="0px" y="0px"
	 viewBox="0 0 2048 2048" style="enable-background:new 0 0 2048 2048;" xml:space="preserve">
<style type="text/css">
	.st0{fill:#FFFFFF;}
</style>
<g>
	<path d="M1261.2,1555.2c-57.9,17-114.9,17.4-172.8,0.5l-38-14.2c-34.6-15.8-68.8-38.3-95.4-65.6c-35.8-36.6-62.3-80.3-80.8-128
		l-9.6-36.7c-4.7-18.2-2.7-36.9,4.1-54.1c14.1-35.9,55.5-49.5,88.5-30.3c13.3,7.7,27.1,12.6,42.8,14.1c44.1,4.4,88.9-6.5,124.8-33.2
		c28.3-21.1,51.7-47.1,71.9-76c18.7-26.7,35.6-54,51.1-83L1354,850.1l74-132c19.1-34.2,40.2-66.2,63.7-97.4
		c37.8-50.2,86.5-96.7,144.8-121.4c31.8-13.4,65.9-19.9,100.5-16.3c74.7,7.8,138.6,56.5,182.6,115.5c14,18.8,25,39.2,34.3,60.7
		c5.9,13.8,9.2,27.7,13,42.2c5.7,21.7,9.2,43,9.4,65.7c0.2,23.1-5.2,45.6-18.9,64.5c-17.8,24.6-48,36.7-78.5,33.7
		c-73.3-7.2-133.4,10.2-182.5,66c-12.6,14.4-22.6,29.1-33,45.2l-64.2,111.7l-65.5,128.4l-67.6,134.2l-40.2,74.9
		c-10.4,19.3-23,36.1-38.1,52.2C1353.2,1514.7,1309.7,1540.9,1261.2,1555.2z M1627.3,545.1l34.2-6.8l25.1-7.8
		c16.1-5,31.1-11.3,45.7-20.5c-3-0.3-8.3-0.8-10.7,0.6c-11.5,6.4-22.5,10.4-34.6,14.8c-15.4,5.5-30.1,9.9-46.3,12.8
		C1636,538.9,1631.2,542.9,1627.3,545.1z M1609.2,555.7l48.3-8.4c27.3-6.6,53.5-16.1,77.9-29.9l9.5-6.9c-5.1-2.9-8,0-11.7,2.6
		c-14.1,9.4-29.6,15.4-45.6,20.5l-22.8,7.3l-45.2,8.6L1609.2,555.7z M1594.1,566.3l32.6-5.9c34.7-4.2,67.7-13.8,98.7-29.9
		c10.3-5.4,19.3-11,27.1-19.2c-0.5-0.3-3.6-1-4.4-0.2c-18.4,16.5-65.1,35-89.9,39.3l-53.1,9.1C1601,560.2,1596.9,564,1594.1,566.3z
		 M1685.3,522.2c9.4-3.3,18.4-6.3,26.9-11c-12.3,0.7-22.6,5.4-33.8,9.3c-9.8,3.4-19.5,5.8-28.7,11.8
		C1662.2,530.9,1673.5,526.4,1685.3,522.2z M1582.1,575.9l46-8.2c34.1-3.3,66.6-12.9,96.7-28.8c12.4-6.8,22.9-14.4,32-25
		c-0.2-0.6-0.4-1.4-0.8-1.5l-1.8-0.1c-7.8,9.2-17.2,15.2-27.9,21.2c-25,12.8-51.6,22.7-79.7,27l-48.5,7.5
		C1592,569.7,1586,571.1,1582.1,575.9z M1556.3,599.2l-2.8,2.1c8.8,6.4,16.8,6.9,26.4,4.7c24.3-2,47.7-6.6,72.6-3.5
		c-24.8,1.1-49.4,2.1-74.5,5.8c-19.9,3-24.9-6.8-27-4.7l-1.8,1.9l10,5.3c5.2,2.8,11,2,16.8,1.4l65.9-6.6l21.3-3l-8.8-1
		c8.3-0.6,15.9-2.3,24.1-5.1l26.2-9c15.4-5.3,28.1-14.3,42.5-22.6c-16,15.2-35.7,23.6-56.1,30.4c-18,6-35.2,11.9-54.3,13.5
		l-63.6,5.3c-16.1,1.3-21.1-7-26.1-6.5c-1,0.1-2.2,2.6-1.1,3c6.6,2.4,13.8,9,21,8.1l30.2-3.6l31.8-2c21.7-0.3,40.9-6,61-13
		c21.1-7.4,40.1-16.5,58.1-30.3c-16.3,16.9-37.5,25.7-58.9,33.5c-20.2,7.3-39.4,12.2-61,12.5c-16.4,0.2-32.6,1.3-49,3.5
		c-8.8,1.2-16.4,1-24.7-2.7l-11.6-5.1c-32,34.5-59.6,71.3-83.9,111.4l-55.9,99l-66.1,120.8l-20,37.6l-6.6,12.6l-5.3,10
		c35.1-13.4,74.3-27.7,109.3-14.8c-20.2-4.5-39.2-4.9-59.2-0.1c-17.9,4.2-34.5,10.4-51.5,17.4l-4.3,8.2l50.8-15.8
		c41.2-10,77.3-4.4,113.5,17.1c-6.9-2-12.8-5-19.1-8c-22.3-10.6-46.6-13.7-71.2-10.5c-26.6,3.4-51.4,10.6-76,20.7l-3,6.1
		c53.2-16.9,113.2-30.8,164.9-5.1c16,7.9,32.4,14.2,45.7,26.3c-20.3-11-38.5-22.8-60.1-29.6c-24.2-7.7-49.1-8.6-74.5-6.1
		c-25.3,2.5-49.1,9-73.3,16.1c-4.1,1.2-7,3.5-7.2,7.3c70.7-21.2,165.9-28.4,222.3,23.2c9.4,8.6,16.5,18.6,24,29.1l86.8-160.3
		c12.7-23.4,28.6-42.9,43.4-64.9c28.5-42.3,51.2-88,74.3-133.5c12.8-25.2,22.4-50.3,31.2-77c8.8-26.4,14.4-52.7,14-80.6
		c-0.3-21.4-8.8-40.7-26.2-54c-17.2,22.9-46.9,36.1-74.3,45.2c-16.3,5.4-32.2,8-49.3,10.7l-55.8,9.1c-3,0.5-5.9,2.1-7.1,4.9l80-12.3
		c12.8-2,24.3-5.5,36.5-9.4c19.4-6.3,37.5-14.6,53.5-27.4c6.9-5.5,11.6-12.7,19.6-17.1c-18.3,23.4-43.1,38.5-70.7,47.1
		c-12.3,3.8-23.7,7.8-36.5,9.7l-78.7,11.3c-3.8,0.5-7.6-0.5-10.7,3.3c3.5,0.4,7.8,1.1,10.9,0.6l80-11.4
		c22.1-3.1,42.6-11.4,63.1-19.3c5.2-5.3,10.6-8.8,16.9-12.4l27.6-25.2c-1.7,5.2-6.1,7.8-9.4,11.5c-7.9,8.9-16.7,16.1-27.2,21.9
		l-12.6,9.4c-18.8,7.1-37.5,14.6-57.6,17.2l-75.4,9.9c-12,1.6-18.9-2-21.1,2.6c4.5,0.8,9.5,2.6,14,2.1l62.9-7.9
		c17.7-0.9,33.7-3.9,50.3-9.9l38.7-14.2c9-3.3,15.9-8.3,23.8-15.4c-4.1,8.5-12.4,12.6-20.7,16.6c-13.5,6.5-26.8,11.2-41,16
		c-16.2,5.5-31.7,9.4-49,9.8c-16.3,0.4-31.9,2.4-47.9,5.2c-11.4,2-22.4,2.3-33.2-0.7l-1.9,2.8l0.8,0.1c8.7,3.6,17.5,4.4,27.3,2.6
		c21.4-4.3,42.2-6.2,63.9-6.4c15.3-0.1,29.1-6,43.3-10.3c20.8-6.3,47.4-18.2,62.8-33.5c-4.7,9.1-13.5,13.5-21.8,18.6
		c-13.6,8.3-27.3,13.9-42.5,18.7c-14.8,4.7-29,10-44.9,9.9l-41,2.1l-28.1,2.9c-6.8,0.7-14.8-0.6-20-3.3L1556.3,599.2z
		 M1532.6,1089.4l1.9-2.4c1.2-1.6-20.7-28.7-35.1-38.5c-57.7-39.3-142.4-33.2-207.6-14.8c-3.5,1-6.2,2.4-6.6,6.2
		c53.1-14.2,108.2-17.6,162.2-6.7c14.5,2.9,27.4,8.7,40.7,14.5C1506.9,1057.2,1521.6,1070.6,1532.6,1089.4z M1525.9,1101.5l4.7-7.4
		c-22.2-41.2-69.3-56.2-114.6-60.9c-44.7-4.7-88.7-2.3-131.8,10c-1.5,0.4-3,3.1-3,4.6c44.2-12,88.8-13.1,133.7-7
		C1456.9,1046.6,1506.6,1061.1,1525.9,1101.5z M1040.8,1430.4c2.5,0.1,6.6,0.6,8,2.1c10,10.1-16.4,60.5-2.9,64.4l2.5,0.7
		c0.3,0.1,0-0.4-0.1-0.7l-0.3-2c-3.7-23.4,23.4-67.5-6.3-67c-1.9-0.1-1.7-0.6-0.1-1c4.9-0.8,8.2-0.8,12.6,1
		c12.9,16-2.3,40.9-1.7,66.7c0,1.6,0.7,5.5,2,6l4.9,2c-6-23.2,15.5-61.5-1.3-75.6c-4.1-3.5-9.2-3-14.4-2.9c-1.7-0.4-3.8-1-1.7-0.6
		l9-1.3c9.6-1.4,16,6.3,17.6,15.6c4.2,24.3-9.4,46.8-3.5,66.3c0.5,1.7,4.1,2.9,6.8,3.3c0.5,1,0,0.1-0.5-1.1
		c-2.3-9.1-1.1-18.4,0.7-27.7c4.9-25.5,9.3-55-18-60l-1.2-1.9c-0.2-0.4,1.5-0.9,2.1-1.2c14.5,1.1,25,13.4,26,27.9
		c1.7,20.9-5.9,40.4-4.5,60.4c0.3,4.9,3.1,7.6,8.4,7.5c1.4,0.9,2.2,0.9,0.8-0.7c-2.6-7.6-2.6-15.3-1.8-23.3l4-40
		c2.1-20.7-18.3-34.9-39.1-38.7c16.5-1,34.5,7.2,41.5,23.2c11,25.2-15.5,85.1,12.6,83.1c0.5,0,1.9,0.2,1.7,0l-1.1-0.9l-1.2-1.1
		c-3.8-3.6-6.5-9.2-6-14.6l2.3-29.1c1-12.3,2.7-24.6-1.5-36.5c-4.2-12.1-15.3-21-27.4-24l-12.4-3l1.2-1.4l17.7,3.5
		c0.3-1.5,1.1-1.8,2-1.3c8.3,5.1,15.6,9.8,20.8,17.8c15.2,23.4-1.3,63.8,5.5,79.6c2.4,5.6,9.5,12.1,15.5,12.5l16,1.1
		c-15.3-7.2-28.3-13.1-26.3-30.4c1.7-13.8,3.2-27.3,2.4-41.1c-1.6-25.5-20-40.4-43.3-46.4c26.1-0.6,43.3,15.8,48.4,41.6
		c4.5,22.8-6.4,44.9,1.5,55.3c7.9,10.3,20.3,17,33.2,19.4l15.3-0.8c1.7,0.3,3.2-0.2,1.3-0.9c-25.2-5-55.3-19.4-47.1-46.5
		c2.4,11.2,8.5,20.9,18.2,27.7c29.7,20.6,68.7,17.9,95.5-5.8c7.1-6.3,13.5-11.8,18.8-19.9c-0.6,10.3-6.9,16.4-13.6,23.9l1.7-0.3
		c14.6-6.1,10.9-7.7,16.1-19.8l26-60.9c13.2-25.6,30.8-46.8,53.8-64.4c23.9-18,50.7-30.6,79.3-39.4l3.4-6.7l-1.8,0.1l-33.3,12.1
		c-25.9,9.4-49,23.8-69.3,42.4c-32.5,29.8-46.4,66.2-61,106.4l-1-8.9c-1,6-3.3,12-8,16.6c-12.4,12.1-26.6,21.4-43,27
		c-24.6,8.3-51.4,2.3-69.1-16.8c-7.4-8-10-18.7-10.4-29.6c-1-26.1-15.2-48-39.7-57.4l-11.9-5.6c-1.7-1-0.6-1.2,0.8-0.6l13.4,4
		c9.8,2.9,19.1,8.2,25.5,16.6c8.3,10.9,14.3,24.1,15.2,37.9c1.2,17.4,9.5,31.7,24.9,40.2c16,8.8,34.8,9.9,52.2,3
		c18.2-7.2,45.8-24.6,51.4-42.1c9.2-28.5,20.9-55.7,40.6-78.7c20.9-24.5,48-42,77.6-54.5l48.9-17.1l3.7-5.5c0.4-0.6-0.5-0.9-2-0.7
		l-54.8,19.4c-24.7,10.1-47.2,23-66.6,41.4c-22.5,21.4-38.6,48.3-47.9,77.8c-2.7,8.5-3.4,17.8-9.9,24.5
		c-12.9,13.2-29.1,23.1-46.5,29.3c-28.9,10.4-62.1-4.7-67.6-36.3c-2.5-14.2-8-25.9-14.6-39c9.6,9.2,13.9,21.8,17.3,34.2
		c7.8,28.8,35.4,44.2,64,33.6c14.9-5.5,28.6-14,41.2-24.3c4.8-3.9,8.6-9.7,9.9-16c3.4-16.3,8.9-30.6,16.9-45.1
		c25.5-46.5,63.5-69.9,112.2-88.1l50.8-17.2c1.7-2.1,3.3-5,4-7.4l-49.1,17.5c-47.5,16.9-87.1,35.8-115.6,79.3
		c-11.2,17.1-19.2,34.7-23,55c-0.8,4-3,10.2-6,13c-12.7,11.7-27.2,20.2-43,26.2c-24.1,9.2-48.6-2.1-57.9-26.3
		c-3.6-9.3-6.2-19.1-12.2-27.5c-8.9-12.3-21.4-20.1-34.8-26.1l-17.6-10c-0.5-0.4,0-1.9,0.6-1.6l33,15.6
		c15.8,8.7,25.9,24.3,32.1,40.9c4.5,11.9,12,21.9,23.5,27.5c24.8,12.1,57-10.1,77.6-27.2l4.3-21.6c3-13.7,9.4-25.5,16.8-37.3
		c28-45.2,68-64.2,116.2-81.9l59-21.7l4.8-9.4l-2,1l-54.5,22.6c-20.5,7.3-39.8,14.9-59.2,24.6c-73.7,36.7-83.5,98.6-91.7,105.3
		c-13.7,11.4-28.9,20-45.6,25.5c-13.4,4.4-26.6,0.6-35.2-10.5l-13.1-20.9c-4.3-6.9-7.8-14.6-13.6-20.3c-7-7-17.3-9.3-26.6-12.1
		l-20-6.2l1.5-1l31.8,7.2c10.4,2.4,17.2,8.2,22.3,17.2c13.6,23.8,26.2,49.7,54.6,39.1c15.4-5.7,29.6-13.7,42.6-24.1
		c2.4-1.9,4-7.9,4.9-10.8c4.5-14.6,11.8-26.4,20.8-38.5c30.3-40.4,66.7-56.8,113.4-73.7c25.3-9.2,49.3-19.3,73.1-31.7l6.1-11
		l-1.9,0.3c-27.9,16.8-56.8,30.1-87.1,41.8l-51.3,22.6c-17.5,9.2-32.2,20.9-45.5,35.4c-11.4,12.4-21.6,25.2-28,40.8
		c-2.2,7.1-4.4,13.6-8.1,20.2c-23.7,15.1-54.6,36.9-74.4,11.9l-21.2-32.5c-4.4-6.8-9.4-10.2-17.5-11.4l-32-5
		c-1.3-0.6-1.1-2.2,0.1-2.1l33.5,3.5c4,0.4,10.8,1,13.1,4.5l24.6,36.5c20.1,24.4,48,2.9,72.1-11.1l7-19.2
		c4.4-12.2,12.8-22,21.2-31.8c15.6-18.3,33.6-33.1,55.1-43.9l43.8-19.3c35.5-13.7,69-30.2,101.1-50.7l5.7-10.4l0.8-1.5
		c0.2-0.3-0.6-0.2-0.9,0l-1.5,1c-40,27.1-82.4,48.6-127.1,66.7c-40.5,16.5-68.7,36-94.5,71.4c-10.8,14.8-11.3,28.2-16.2,31.9
		c-10.2,7.8-21.2,13.5-33,18.2c-22,8.6-33.4-7.6-44.4-22.7l-12.4-17.1c3.5,0,6.2,2.6,8.3,5.2l15.4,19.6c7.7,9.7,20,12.3,31.9,8.5
		c12.7-4.5,24.2-11.4,34.7-20.1c2.9-11.1,7.4-20.5,14.7-29.3c22.1-29.1,50.6-50.5,84.7-64.5c52-21.3,100.7-47.5,146.3-80.4
		l10.4-19.7c-8.6,8.4-17.2,15-26.9,22.1c-42.7,31.2-87.9,56.6-136.4,77.4c-32.6,14-60.4,35.1-82.2,62.7c-6,7.8-10.1,15.5-13.3,24.9
		c-10,9.2-22.1,15.7-35.1,20c-17.8,4.7-31-7.8-40.8-22.5c-4.3-6.4-10.2-9.8-18.3-9.8l-24.1-0.2c-3.8,0-7.4-1.2-10.1-3.6
		c8.5,1,15.9,1.1,24.2,0.4c8-1,16.3-1.4,23.6,1.7c5.6,7.7,10.8,14.7,17.8,20.4c8.4,6.8,18.1,9.4,28.5,5.9c11.7-3.8,22.7-9.6,32-17.7
		c4.3-9.4,9.3-17.4,15.6-25.5c21.5-25.9,48.1-45.4,79.2-59c46.3-20.2,89-45,129.5-75.3c16.8-12.6,32.6-24.7,46.7-40.5l31.1-58.6
		c-5.6-19.1-19.2-33.4-36-43.9c-22.7-13.7-47.6-20.7-73.9-24.8c-42.7-6.7-85.2-5.8-127,4.9c-3.2,0.8-5.5,1.3-5.9,4.6
		c54.5-11.7,108.2-12.3,160.9,6.2c38,13.4,73.3,48.1,52.8,87.7c-14.8,28.6-48.1,55-74.6,74.5c-34.5,25.4-70.4,46.8-109.4,64.5
		c-21.6,9.8-40.5,22.2-58,38c-13.1,11.6-23.2,24.7-32.3,39.8c-11,9.8-24.6,16.3-39.2,19.1c-8.4,0.4-14.7-3.8-21-8.7l-16.8-13.1
		c7.8-0.1,13.8,3.3,19.3,7.6c15.9,12.5,44.6,0.6,57.6-13.1l16.6-20.7c18.5-20.2,40.4-36.6,65.6-48.5c52.3-24.7,101.1-55.7,143.6-95
		c13.6-12.6,24.9-26.5,33.5-42.4c20-37-10.8-71.8-47.4-85.9c-29.4-11.3-60.3-15.4-92-14.7c-19.9,0.5-38.5,3.5-58,7
		c-2.8,0.5-4.8,2.6-4.6,4.7l47.6-6.4c30.5-1.9,60.5,1.9,89,12.2c36.6,13.2,62,42.3,47.5,81c-13.2,35.4-47,62.4-76.7,85.3
		c-26.6,20.4-54.4,36.8-84.4,51.6c-24.7,12.1-46.6,27.6-65.4,47.5l-11.8,14.4c-12.9,12.9-40.9,25.6-54.7,17.9
		c-7.2-4-14.9-8.4-23.1-7.7l-27.6,2.5c-8.7,0.8-16.6,1.1-24.1-3.1c9.2,1.6,17.1,1.7,26.2-0.3c12.9-2.8,27.6-5.4,40.7-1.4
		c13.8,4.3,26.3,4.3,39.8-0.8c13.7-5.2,23.3-13.3,33-24.2c18.3-20.5,41.4-35.5,65.8-47.9c26.9-13.7,51.4-28.4,75.1-47
		c17.3-13.6,34-26.9,48.4-43.5c20.2-23.3,40.3-57.4,25.3-86.2c-17.8-34.2-69.1-45.6-106.2-46.7c-21.7-0.7-42.2,2.1-63.4,5.7
		c-2.7,0.4-4.6,1.8-5.4,4.3c43.3-7.6,83.9-8.8,125,8.8c29.4,12.6,46.5,38.9,36.2,70.6c-7.5,23.1-21.3,43.1-39.2,59.8
		c-36.7,34.3-58.5,51.1-103.4,74.5c-25.1,13.1-45.7,29.6-66.1,49c-14.3,13.5-36.2,19.6-55.4,17.6c-15.6-1.6-28.8-1.4-43.5,3.6
		c-10.5,3.5-21.7,4.5-31.7,0.3c11.7,1.6,22.7,0.6,33.6-3.7c13.1-5.1,26.2-6.9,40.4-6c28.2,1.8,48.3-10,68.9-27.7
		c15.7-13.5,31.8-25,50.3-34.8c42.4-22.5,80.4-51.5,111.6-88.1c12.5-14.7,20.8-31.4,24.9-50c5.1-23.5-5.3-44.8-26.2-56.7
		c-38.5-22-84.6-21.1-127.5-13.9l-0.5,2.3c-0.1,0.4,0.8,0.4,1.7,0.2c38.1-4.7,76.7-4.1,110.8,14.1c17.2,9.2,28.9,26.2,28.3,46
		c-1,35.3-25.6,62.4-49,86.2c-19.7,20-40.9,36.6-65.2,50.8l-48.1,30.9c-14,10.5-27.8,20-43.8,27.2c-22.8,10.2-47.4,4.5-72,15.6
		l2-2.8c-10.7,2.3-21,5.3-32,3.6c12.3-0.7,24.1-2.5,36.2-6.5c36.9-12.1,53.5-4.2,93.1-30l64-41.9c31.3-18.8,67.1-52.6,87.2-82.7
		c20.5-30.8,26.6-71.7-8.1-91.9c-17-9.9-36.2-14.6-56.1-16.6c-16.6-1.6-32.4-0.3-49.1,1.3c-2,0.2-3.6,1.9-3.7,4.2
		c41.9-6.9,117.4,3.5,119.8,53.6c1.5,32.5-22,61.7-42.7,85.4c-17.2,19.7-36.6,35.2-58.4,49.7l-51.5,34.4
		c-16.8,11.2-33.9,18-53.6,22.6l-37.1,8.6c-6.7,1.6-12.7,4.3-19.9,4.1l15-4.1c14.2-5.1,27.7-9.8,42.7-12.3c18-3,33.8-9.7,49-20
		l51.2-34.7c22.1-15,41.6-31.8,58.4-52.5c8.5-10.4,16.4-20.5,22.9-32.1c16.6-29.9,20.1-66.8-11.2-84.9c-10.4-6-21.5-9.6-33.5-12.4
		c-17.6-3.5-35-3.9-52.9-2.4l-2.2,3.5c38.3-1.4,93.1,7.5,96.9,51.2c1.3,14.5-1.5,28.4-7.4,41.6c-10.9,24.1-42.6,63.3-64,78.2
		l-63.6,44.2c-13.3,9.3-28.1,16-44.7,18c16.5-6.7,32.1-12.6,46.7-23l53.8-38.2c20.2-14.4,48-49.7,58.9-72c6.5-13.3,10-27.2,9.9-41.9
		c-0.2-43.2-47.1-53.6-84.9-54.7c-1.4,0-4.1,0.2-4.6,1.2c-0.4,0.8-0.8,2.6-0.8,3.2c17,1.1,32.5,3.4,47,10.4
		c35.6,15.9,34.6,57.7,18.1,88.7c-11.8,22.1-26,43.1-45,59.8c-20.3,17.9-42.2,32.5-64.6,47.4c-11.4,7.6-23.4,12.2-35.9,17.3
		c-19.6,8-39.7,14-61.3,12.3l13.2-1.6c24-2.9,59.3-15.7,80-29.1c21.2-13.7,41.3-27.9,60.4-44.4c17.6-15.1,29.8-34,40.8-54.2
		c17.1-31.4,21.4-72.6-12.8-91c-13.1-7-27.2-9.8-42.5-11.5l-2.7,4.4c26,5,50.8,15,55.8,42.1c2.7,14.7,2.1,29.8-3.5,44.4
		c-10,26.4-25.7,50.9-47.1,69.7c-17.6,15.5-35.8,28.9-55.5,41.6c-24,15.5-52.5,24-80.8,26.3l27.7-6.5c21-5.9,41.1-13.1,58.4-26.5
		l41.1-31.9c23.1-19.9,39.4-46.4,47.9-75.6c6.9-23.7,4-54.5-18.6-67.2c-8.9-5.2-17.5-8.4-27.7-11.4l-2.8,5.3
		c13.7,5,25.9,12.1,32.8,24.9c8.5,15.9,9.3,34.3,4.4,52c-7.1,25.7-20.2,49.8-39.4,68.5l-40.3,33.7c-18.8,15.7-55.5,28.1-80.6,30.4
		c20.8-5.2,41.5-10.9,60.8-21.2c15.3-8.1,27.5-19.2,40.7-30.3c24.1-20.4,42-46.4,49.2-77.4c7.6-32.9,0.6-61-31.2-74.8l-3.2,6.3
		c47.1,29.7,20.7,101.8-11.2,136.6c-27.9,30.5-59.1,48.2-100,56.2l45.5-17.7c30.6-15.1,54.1-39.6,68.8-70.1
		c15.6-32.5,23.9-75-7-98.3l-4.5,8.3c17.3,16.9,17.1,47.6,9.4,69.8c-6.5,18.9-14.3,37.4-26.7,53.4c-19.7,25.3-48.2,41.4-79.4,48.8
		c4.8-3,10.2-4.2,15.8-6.6c19.8-8.6,39.6-19.1,53.5-36.3c22.5-27.8,47.1-92.3,23.1-121.7c-27.8,48.8-66.6,97.3-114.9,124.9
		c-30.9,17.7-64.7,28.1-100.5,28.7c-39,0.7-65.1-12.2-84-11.4c-11.5,0.5-19.6,8.8-21,20c-1.6,12.9,0.7,25.3,5.7,37.6
		c11.3,27.8,26.7,53.5,46.5,76.2c21.7,24.8,45.9,46.6,74.4,63.3l4.2-20.1l6.8-25.5c0.7-2.6-0.2-6.4-0.4-10
		c6.1,3.9,0.8,21.2-2.6,32.2c-3.9,12.6-8.3,27.4-0.4,27.1c-2.5-21.1,21.9-59.6,1.4-61.2C1038.7,1432.2,1039.3,1431.6,1040.8,1430.4z
		 M1261.4,1482.2l9.1-4.9l25.3-53.5c25-47.1,64.6-82.8,114.7-101.3l4.4-8.4c-50.4,17.5-91.3,45.2-118.7,92
		c-10.9,18.5-19.3,37.5-27.7,57.2L1261.4,1482.2z M1295.4,1459.9c26-53.6,52.1-89.8,104.4-119l6-10.8c-30.7,14.2-58.1,33.9-79,60.6
		c-19.2,24.4-33.5,51.3-45.4,79.5L1295.4,1459.9z M1327.2,1435l18.6-27.2c10.8-15.8,24.2-28.8,39.7-40.2l8.6-16.2
		c-39.4,25.8-62,55.7-84.1,97.6C1315.8,1444.7,1323.1,1441,1327.2,1435z M1352.1,1411.7c9.8-8.2,17.9-17,23.9-27.5L1352.1,1411.7z"
		/>
	<path d="M519,1470.4l-33.1,31.6c-15.8,15.1-34.3,26.7-53.6,37.3c-17.6,9.6-35.6,16.3-55,21.2c-46.3,11.6-94,6.4-136.6-15.2
		c-22.5-11.4-43.6-24.7-62.4-41.7c-30.4-27.5-55.9-58.9-74.3-95.7c-18.3-36.6-29.2-77-32.1-117.7c-4-56.1,28.8-108.2,86.1-108.3
		l38.2,1.3c83.4,2.9,136.4-31.9,181.5-99.8c30-45.3,57.4-92.2,81.8-141l113.9-227.9c16-32.1,31.8-63.7,49.5-94.5
		c28.8-50.2,70.8-88.9,123.6-112.9c44.1-20,92.7-30.5,141.5-29c68.3,2,146.3,37.2,196.6,83.2c41.6,38,83.3,107.5,99.6,161.4
		c10.3,34.1,5.8,76.7-25.6,96.7c-20.7,13.2-47.5,12.1-68.2-0.9c-18-11.3-36.8-17.7-58.6-17.6c-48.9,0.1-96.2,19.5-131.5,53.1
		c-12.6,11.9-23.4,23.7-34.1,37.1l-32.1,44.9l-35.2,58.7l-23.5,46.7L698,1187.9l-43.9,80.1l-31.3,56.7l-27.9,46.2
		C573.2,1406.8,547.8,1439.2,519,1470.4z M656.9,824.4c24-20.3,48.3-36.7,74.8-52.9c20-12.3,36.8-28.9,52.6-46.1
		c14.5-15.7,24.9-33.4,35.1-52.1l35.3-21.7c8.6-5.3,18.1-5,27.3-0.5c19.1,9.3,25.2,31.9,46,32.5c14.9,0.4,28.3-4.5,42.3-9.5
		c-9.6,7.3-21.3,9.9-33.2,12.3c-10.4,2.1-20.7,0.5-28.8-6.7l-18.5-16.2c-10-8.7-22.9-10-34.7-4.3l-32.9,19.1
		c-8.9,15.5-18.1,29.6-29.1,43.9c-17.6,19.2-35.9,37.7-58,51.9c-18.5,11.9-36.6,22.4-53.3,36.8l-45.2,38.8
		c-10.6,9.1-19.6,19.3-26.8,31.1c-19,31.1-8.4,63.8,22.4,81.1c41.1,23.2,93.6,23.1,139.6,15.8c3.3-0.5,5.9-1.1,6.3-4.1l-41.2,3.6
		c-32.8,1.2-65.7-6.4-93.9-22.6c-16.1-9.3-26.9-24.8-26.9-43.4c-0.1-31.6,26.3-54.8,46.9-75.2c24-23.8,50.3-43.1,78.7-61.4
		c21.2-13.6,38-31.8,55.2-49.6l26.5-39.7l33.9-20.1c9.4-3.7,19.5-4.2,27.8,1.8l19.1,14c21.8,15.9,33.9,8.2,59.2,0.2
		c-11.2,7.8-24.5,11.7-38.3,11.9c-8.5,0.1-16.1-3.7-23.1-7.8L882.9,674c-8-4.7-18.1-4.8-26.8-0.6c-9.9,4.9-21.1,9.7-29,17.7
		l-25.8,34.4c-17.2,19.1-35.6,37.2-57.3,51.5c-28.4,18.7-54.2,38.8-77.5,63.5c-10.6,11.3-21,21.7-28.6,35.3
		c-7.7,13.8-12.7,29.4-8.7,45.2c9.3,36.7,70.2,51.6,105.7,52.4l42.4-3.2c2.3-0.2,4.2-1.8,4.4-3.9l-40.7,2.5
		c-28.1-1-55.2-8.9-78.1-24.4c-29.1-19.6-24.9-52.7-5.9-79.7c21.4-30.4,48-55.9,78.6-77.2c24-16.7,46.2-34.5,66.1-55.9l24.7-31.5
		c7.8-9.9,20.8-15.6,32.4-20.4c21.2-8.8,36.5,15.5,62.3,16.3c13.2,0.4,24.8-4.4,37.2-9c-12.1,8.8-27,12.9-42.2,11.9
		c-28.1-1.9-39.6-20.6-66.9-6.8c-11.7,5.9-21.4,13-29.3,23.7c-11,15-23.2,28.6-37.9,40l-41.6,32.5c-29.9,21.8-55.7,48-75.5,79.2
		c-13,20.5-18.6,47.6-1.2,65.7c19.4,20.1,59.3,33.1,84.4,31.8l33.3-1.8c1.7-0.1,3.4-1.6,3.6-3.3l-33.1,1c-25.4-0.9-50-9.3-69.3-25.3
		c-11.9-9.9-17.9-23.4-15.8-38.7c1.6-11.8,5.3-22.5,11.5-32.8c16.8-27.9,38.2-51.8,63.8-72l38.6-30.4c15.4-12.1,28.2-25.2,40.9-40.2
		c11.4-13.5,27.6-24.3,45.2-26.7c9-1.3,17,3.8,25.4,4.6c20.5,5.3,41,3.6,59.9-6.4l0.2,1.3c-24.3,15.1-47.8,12.5-74.6,9.4
		c-24.1-2.7-44.9,12.9-61.1,30.1c-26.8,28.5-59.7,47.8-88,76c-16.5,16.5-30,35-41.7,55c-11.4,19.5-15.1,48.8,2.1,65.3
		c16.9,16.2,38.4,25.3,62,26.9l34.2-0.1c1.2,0,3.5-2.1,3.4-2.9c-32.3,0.6-60.3-2.9-84-24.6c-19.3-17.7-17.8-42.7-6.6-65.5
		c12.1-24.6,28.7-45.7,48.3-64.6l30.2-26l43.4-36.5c19.1-16.1,33.2-26.1,59.1-27.2l41.1-1.7c10.1-0.4,18.4-5.2,28.7-9.1
		c-11.9,8.8-26.3,11.7-41.4,13.9l-43.1,6.2c-16.2,3.4-30.7,12.5-43.5,22.9L775,779c-26.2,21.2-48,46.3-63.9,75.9
		c-12.2,22.7-17.9,50.4,0.5,69.5c10.2,10.5,22.7,17.8,36.8,22c14.2,3.4,28.1,4.4,42.3,4l0.5-2.7c-21.5-0.3-41.3-5.6-58.6-17.2
		c-28.1-21.4-24.9-50.7-9.5-80.4c16.7-32,40.6-58.8,69.1-80.8l29.4-22.7c12-9.3,25.1-17.7,40.1-20.9l61-13l16.3-5.7
		c-7.3,6.6-16.4,8.2-25.8,10.6l-54.9,14.2c-22.1,7.1-39.5,21.3-57.7,34.9c-33,24.7-59.2,55.9-74.4,94.5
		c-10.7,27.1-6.5,52.8,18.4,69.1c18.6,12.2,48.8,15.9,49.3,13.4l0.5-2.7c-14.4-1.8-26.7-5.6-38.4-13c-31.6-21.1-27.7-55.6-11.8-87.5
		c14.9-29.8,35.9-54.7,62.8-74.3c16.3-11.9,32-24.8,51.6-30.4l51.4-14.7l21.3-5.8c-5.9,4.7-13.1,5.9-20.3,8.1
		c-17.3,5.2-34.7,8.5-51.6,15.5c-25.8,10.8-49.1,27-69.4,46.2c-19.4,18.4-33,41.4-42.9,65.9c-4.9,12.1-6.4,24.9-5.4,37.6
		c2.3,29.7,28.3,44.3,55.7,49.4l1.8-3.9c-25.9-6.5-46.4-25-47.4-52c-0.4-10.1,0.5-19.7,3.8-29.5c9.1-26.5,22.9-51.9,43.9-71.1
		c17.7-16.1,37.9-29.1,59.4-39.4c16.2-7.7,33.6-10.5,50.5-15.8l17.1-5.4l0.7,0.9l-10.7,4.5c-18.3,6.3-37.2,8.9-54.9,17.5
		c-19.8,9.6-39,21.3-55.4,36.4c-24.2,22.4-40.5,54.3-45.5,86.2c-4.6,29.8,13.1,56.2,41.3,63.2l2.8-5.4
		c-32.6-12.4-40.5-44.3-31.2-76.8c7.1-24.8,19.8-47.7,37.5-66.4c6.8-7.2,14.9-11.7,22.6-17.6c18.9-14.7,39.7-23.5,62.9-29l26.9-8.7
		c-1.1,2.8-3.9,3.8-6.8,4.7l-28.6,8.4c-18.6,5.5-35.3,13.5-50.4,25.6c-6.1,4.9-13.3,8.4-18.9,14.2c-21.9,22.9-36.4,52.5-40.4,83.8
		c-3.1,24.5,8,45.9,29.2,57.1l3.4-6.9c-35.3-26.9-22.6-76.9-1.7-111.5c9.2-15.3,20.2-27.1,34.6-37.6c14.5-10.6,29.5-18.8,47.1-23
		l25.3-7.8c-3,3.6-7.4,4.2-11.7,5.7l-29.3,9.9c-15,6.4-28.8,15.5-40.8,27.3c-31.2,30.8-57,98.9-19.7,131.4l43.1-68.4
		c23.8-34.1,56.6-59.5,94.3-76.8c40.9-18.7,86.3-24.7,130.2-14.9l34.6,9.4c7.5,2.1,15,0.1,21.1-4.6c12.5-9.6,10.5-30.9,4.4-46.6
		c-7.9-20.3-17.4-39.4-28.9-58c-47.2-76.4-123-121.8-211.7-133.9c-56.8-7.8-112.9,9.8-155.1,48.6c-26.4,24.2-48,52.8-65.8,83.9
		l-18.8,32.7c13.2-14.3,24.8-29.7,36.8-45.5c6.4-8.5,13.7-15.8,22.6-22.5c-16.6,35.3-42.3,63.2-70.3,88.8c-4.4,4-5.6,10.8-8.9,15.7
		c41.7-30.1,74.9-71.3,95.5-118.6l11.2-7.9l-10.8,27c-16,30.4-36.8,57.5-61.9,80.8c-13.2,12.3-27.1,21.8-41.3,32.9
		c-2.6,2.1-4.3,7.5-6,11.5c50.5-32.8,92.4-73,119.1-128.4l12.3-31c1.8-4.5,8.3-7.3,12.8-9.5c-5.2,8.8-7.2,17.4-10.9,26.6
		c-13.6,33.6-33.9,64.5-59.1,90.7c-23.3,24.2-50,43.1-78.2,60.9c-3.1,1.9-4.6,6.6-5.6,9.7c33.1-19.6,65.4-40.8,92.1-69.2
		c24.3-25.9,43.3-56.8,57.5-88.9c4.7-10.5,5.5-20.8,12.7-29.8c6.5-8.1,13.3-15.8,25-17.4l-13.1,12.3c-9.5,10.6-13.3,23.7-18.2,36.9
		c-8.1,21.9-20.7,40.8-33.9,60c-13.7,19.9-28.9,37.2-48,52.1c-24.5,20.4-50.3,37.5-78.5,52.3l-4.4,8.4c27.3-13.1,51-28.4,74.3-46.3
		c16.3-12.6,31.9-25,45.2-40.9c15.4-18.4,28.3-37.9,40.4-58.4c14.4-24.2,15.1-47.6,24.4-56.7c9.6-9.4,18.9-19.4,30.5-26.5
		c15-9.1,34.1-13.5,51.1-13c17.6,0.5,31,12.9,33.2,29.2l4.3,31.3l-9.1-28.7c-4.3-13.5-15.9-22.2-30.1-24.7
		c-14.5-2.6-29.7,1-41.3,10.1l-29.6,23.3c-17.7,13.9-12.4,38-29.9,63.1l-33.7,48.3c-14.5,18.6-32.2,33-50.9,47.1
		c-26.1,19.6-52.9,36.4-82.3,50.5l-4.8,8.3c30.1-13.1,56.5-30.6,83.4-49.4c22.7-15.9,45-31.9,61.2-54.7l28.2-39.8
		c22.2-31.3,12.2-49.4,27.4-61.7l28.7-23.3c20.6-14.6,53.4-20.4,67.5,3.5c9.9,16.8,14.6,35.2,16.5,54.5
		c1.7,17.1,13.9,29.4,30.4,32.4c15.2,2.8,29.3,0.6,44.9-2.2c-14.9,7.5-32.7,8.4-49.2,5.9c-13.5-2-22.5-11.7-27.7-24.2
		c0.4-4.4,0.3-9-0.7-14c-1.9-17.6-7.7-34.1-19.1-47.6c-13.1-15.5-34.7-14.1-51.8-4.3c-15.6,8.9-30,19.3-42.3,32.6
		c-7.9,8.5-2.2,28.3-16.8,48.2l-36.4,49.6c-16.1,19.9-36.2,34.6-57,49c-29,20.6-58.5,38.3-90.9,52.9l-4.2,8.6l45.7-24
		c37.9-22.5,91.4-55.8,116.7-90.1l28-38.1c17.8-24.2,6.1-39.5,18.4-49.7l27.4-22.6c11.6-8.2,25-14.2,39.5-14.6
		c25.4-0.6,42.2,37.4,42.7,62.7c-7.3-26.2-22.7-60-52.6-53.1c-7.3,1.7-14.8,4.3-21,8.8l-32.9,24c-13.7,10-0.5,26.2-19.1,51
		l-29.1,38.9c-29.9,40-120.4,91-167.9,114.9c-2.7,1.4-4.2,7.5-5.2,9.8c44.5-23.9,87.4-48.4,128.4-77.4c16.2-11.5,32-23.1,44.7-38.3
		l34.5-46.4c13.2-17.8,1.3-33.6,15.9-45.4c13.5-10.9,27.8-21.1,43.3-28.4c13.8-6.4,27.9-4.7,38,6.2c8.5,9.2,13.7,20,18.4,31.7
		l5.7,14.3c10.6,26.7,47.7,21.9,73.4,13l0,1.4c-16.2,7.5-35,10.9-52.9,8.3c-11.2-1.6-19.5-9.2-22.9-19.5
		c-5.3-16-12.1-30.8-24.5-42.3c-6.4-6-14.6-9.8-23.4-8.1c-8,1.5-16.1,4.3-22.8,9l-33.5,23.5c-6.1,4.3-5.4,13.8-6.6,20.3l-0.3,1.9
		c-0.1,0.3,1.3,0.2,1.3-0.2c0.7-3.4,1.3-10.4,4.7-13.1c14.2-11.4,29.2-21.4,45.2-29.6c12.3-6.3,24.6-5.3,34.7,4.1
		c29,27.1,18.1,55,46.7,58.3c16,1.8,32-2.6,48.2-6.8c-15,8.6-34,12.1-50.8,10.8c-11.9-0.9-18.3-8.7-21.3-18.6
		c-4.5-14.9-14.4-27.8-26.1-37.4c-9.6-7.9-20.7-7.9-31.6-2.3c-15.6,8-30.2,17.9-44.5,28.2l-11.5,26.6l-32.8,43.4
		c-14,16.4-30.8,29.2-48.7,41.3c-43.3,29.6-88,55.4-133.8,80.9l-6.7,12.8l25.6-15.7l85.7-53.1l36.5-23.6
		c20.3-13.1,38.3-28.7,52.7-48.2l23.8-32.3c8.6-11.7,7.6-24.4,15.1-29l38.5-23.4c24-14.6,46.8,10.9,56.8,34.9c1.1,2.6,2.9,4.8,2.4,8
		c-11.5-23.3-35-50.4-59.5-35.1l-36.8,22.9c-5,3.1-5.3,8.8-7.1,14c-3.2,9.6-10.3,16.8-15.9,25.1c-17.2,25.6-37.5,47.9-63.4,64.6
		l-38.4,24.7l-80.3,51.5l-42.9,29.3l-35.4,68.7c12.1,45.7,58.1,67.1,102.8,72.6c20.7,2.5,40.8,3.5,61.3,0.2l70.5-11.4
		c2.8-0.4,4.5-2,5.1-5.1c-67.2,12.2-160,24.5-205.2-37c-14.5-19.8-15.4-43.8-2.6-64.6c8-12.9,18.5-23.8,31.3-32.6l56.8-39.1
		c19.4-13.4,37.5-27.1,57.9-39c36.1-21.1,66.5-48.5,89.4-83.6c6.4-9.9,12.2-18.7,15.7-30.2l17-11.2c10.6-5.8,20.4-14,32.9-16.2
		c11-1.9,22,5,29.4,12.5c10,10.1,13.9,21.8,18.8,22.1c7.3,7,17.3,10.1,27.7,8.4c13-1.6,24.9-4.8,37.1-9.9c-9.1,7.7-20.8,9.5-32,12.3
		c-16.7,4.2-32.4-1.1-42.4-15.3c-12.4-17.6-31.2-30.2-50.5-18.7l-31.8,19.1c-4.7,2.8-5.7,8.2-8.2,12.8
		c-23.7,44.4-60.4,78.4-103.7,103.4c-19.1,11-35.8,24.4-53.5,37.4l-44.6,32.4c-13.9,10.1-25.5,22.2-34.1,36.8
		c-11.4,19.4-10.5,40.9,2.4,59.3c11,15.6,26.6,26.8,44.7,34c45,18.1,99,11.9,146.4,4.3c2.6-0.4,4.4-1.9,4.7-4.5
		c-53.5,9.6-138.9,12.6-174.8-33c-14.2-18-16.4-40.9-5.8-61.2C607.8,860,635.3,842.7,656.9,824.4z M766.6,995.3l-79.3,14.2
		c-59.5,8-139.5-1.3-164.9-61.8l-7.3,14c14.9,26.5,38.7,44.2,67.6,52.5c32.3,9.2,64.9,10,98.2,4.6c27.3-4.4,53.3-10.9,80-17.9
		C764.1,1000,766.6,998.4,766.6,995.3z M756.8,1009.3c3.4-1.1,5.4-2.6,5.9-6.3l-76.7,19.2c-63.1,12.1-138.3,5.9-173.7-54.5l-2.6,3.6
		c-0.7,1,1.8,3.5,2.5,4.6c16,25.2,39.3,43.1,67.6,52.3c20.6,6.7,41.4,9.7,63.3,8.5c21.8-1.3,42.7-4.8,63.4-11.4L756.8,1009.3z
		 M330.8,1470.4c-17.2,8.9-29.8,22.1-44.1,34.5c14.7-18.9,37.2-37.3,60.1-45.3c25.7-8.9,51.2-16.9,78-22c23.9-4.5,57.8-0.4,85.1-8.5
		l6.1-7.6c34.8-41.4,65.8-86.3,92.9-133.7c42.1-73.6,82.4-147.8,121.7-222.4l7.5-14.9l6-12l5-9.8l-38.9,19.4
		c-23.3,12.8-48.4,16.9-75.4,15.3c-21.7-3.2-44.5-8.8-62.3-22.1c43.4,23.6,92.6,26.9,136.4,5.3l42.1-20.7l3.7-6.9l-47.4,20.3
		c-48.3,20.7-100.7,19.7-145.9-7.8c-7.9-4.7-16.4-8.4-21.8-16.2c21.4,14.9,43.3,27,68.6,32c34.1,6.6,68.1,2,99.9-11.1l46.8-19.4
		c1.6-0.6,3.1-3.6,3.7-5.9l-58.9,20c-29.4,10-59.7,12.8-90.7,9.4c-44.6-9-76.5-27.5-100.6-66.1L445,1090.9
		c-12.4,22.8-24.4,44.7-39.5,65.7c-10.7,14.8-20.1,28.9-29,45c-33.7,61-77.1,138.6-98.1,203.6c-9,27.7-13.5,55.3-10.5,84.2
		c1.4,13.5,6.7,25.8,14.2,37.3c14.4-16.6,29.9-30.5,50.3-38.6c38.2-15.1,77.7-24.7,118.3-30.6l37.4-6.6c1.8-0.3,4.7-3.3,5.9-4.8
		l-55,9.2c-33.1,5.5-65,14.1-96.5,25.1c-21.4,7.5-37.8,19.6-54.7,34.8c14.1-18.4,34.2-30.7,56-38.6c29.1-10.5,58.5-19.2,89.2-23.8
		l58.2-8.8c4.5-0.7,8.2-2.1,10.8-5.9l-48.2,7.7c-18.4,1.7-36,3.9-53.6,9.4l-62.3,19.5c-17,7.1-30.2,18.5-45.5,29.4
		c12-12.9,26.4-24.2,42.4-31.4c22.1-9.9,45-15.5,68.2-22c14.7-4.1,29.1-5.7,44.2-7.7l53.9-7.1c2.3-0.3,4.8-2.1,6.1-3.8l-72.2,7.9
		c-17.5,1.9-33.6,6.8-50.4,11.5C366.1,1456.8,348.2,1461.4,330.8,1470.4z M350.1,1488.4c23.2-7.1,44.8-14.3,68.3-18.3l56.2-9.6
		c4.4-0.8,8.3-2.6,10.5-6.1l-42.3,7.6c-32.8,4.9-63.7,13.3-95.2,23.5c-24.5,8-45.6,20.8-62.5,40.6l-1.8,2.1
		c-0.3,0.4,1.2,1.5,1.6,1.6C302.3,1509.9,324.2,1496.2,350.1,1488.4z M344.8,1497.3l63.5-18.1l56.4-10.6c4.4-0.8,8-2.2,11-5.4
		l-62.5,11.3l-72.4,20.3c-20.6,8.1-38.5,19.4-53.6,35.4l-0.8,2c-0.1,0.3,1,1.2,1.3,0.9l1.3-1.3
		C304.7,1516.4,322.9,1503.5,344.8,1497.3z M293.7,1533.9c13.9-11.8,28.9-21,45.9-27.5c36.8-13.9,74.2-22.8,113-28.9
		c5.5-0.9,10-2.5,13.4-6.3l-47.9,9.1c-25.8,4.9-50.1,12.6-75,20.7c-19.9,7.9-37.7,17.9-53.2,33c0,0.3,1.2,2.1,1.6,1.7L293.7,1533.9z
		 M360.9,1506.3c27.2-9,53.3-15.9,81.1-20.3c5.1-0.8,9.2-2.2,12.8-5.9l-45.2,8.9l-66.3,19.4c-17.9,7.5-34.3,15.6-48.9,28.3l3,0.8
		C316.5,1522.8,337.4,1513.4,360.9,1506.3z M361,1513.5c25.9-8.8,50.7-15.7,77-20.3l5.1-4.1c-28.2,3.9-54.2,11.4-81,20.1
		c-21,6.8-40.5,14.6-58.9,27.4c-2.1-0.5-0.6,3.2,0.7,2.4C322.2,1528.2,340.3,1519.9,361,1513.5z M323.4,1535.6
		c28.9-12.8,58.2-22.4,88.5-29.7c6.9-1.7,12.8-3.5,18.2-7.8c-25.2,4.9-48.7,11.9-72.8,20.2c-16.4,5.6-31.5,12-46.4,20.3
		C315.8,1540.4,318.7,1537.6,323.4,1535.6z M346.2,1533.6l45.1-15.2l16.7-8.2c-28,7.5-54.8,16.3-81.4,27.5
		C333.6,1538.1,339.5,1535.8,346.2,1533.6z"/>
	<path class="st0" d="M1556.9,598.3l1.9-2.8c10.8,2.9,21.8,2.7,33.2,0.7c16-2.8,31.6-4.8,47.9-5.2c17.3-0.4,32.8-4.3,49-9.8
		c14.2-4.8,27.5-9.5,41-16c8.3-4,16.6-8.1,20.7-16.6c-7.9,7.1-14.8,12.1-23.8,15.4l-38.7,14.2c-16.5,6.1-32.5,9.1-50.3,9.9L1575,596
		c-4.5,0.6-9.4-1.3-14-2.1c2.2-4.6,9.1-1,21.1-2.6l75.4-9.9c20.1-2.7,38.8-10.1,57.6-17.2l12.6-9.4c10.5-5.8,19.3-13,27.2-21.9
		c3.3-3.7,7.7-6.4,9.4-11.5l-27.6,25.2c-6.3,3.6-11.6,7.1-16.9,12.4c-20.5,7.9-41,16.2-63.1,19.3l-80,11.4
		c-3.1,0.4-7.4-0.3-10.9-0.6c3.2-3.8,7-2.7,10.7-3.3l78.7-11.3c12.8-1.8,24.2-5.9,36.5-9.7c27.6-8.6,52.4-23.7,70.7-47.1
		c-8,4.4-12.7,11.6-19.6,17.1c-16,12.8-34.1,21.1-53.5,27.4c-12.2,3.9-23.7,7.5-36.5,9.4l-80,12.3c1.2-2.8,4-4.4,7.1-4.9l55.8-9.1
		c17-2.8,32.9-5.3,49.3-10.7c27.5-9.1,57.1-22.4,74.3-45.2c17.5,13.4,25.9,32.6,26.2,54c0.4,27.9-5.2,54.2-14,80.6
		c-8.8,26.6-18.4,51.8-31.2,77c-23.1,45.5-45.7,91.2-74.3,133.5c-14.8,21.9-30.8,41.4-43.4,64.9l-86.8,160.3
		c-7.5-10.5-14.6-20.5-24-29.1c-56.4-51.6-151.6-44.4-222.3-23.2c0.2-3.7,3-6.1,7.2-7.3c24.3-7.1,48-13.7,73.3-16.1
		c25.4-2.5,50.3-1.5,74.5,6.1c21.7,6.9,39.8,18.6,60.1,29.6c-13.2-12.1-29.7-18.4-45.7-26.3c-51.7-25.7-111.7-11.8-164.9,5.1l3-6.1
		c24.6-10.1,49.4-17.2,76-20.7c24.7-3.2,48.9-0.1,71.2,10.5c6.4,3,12.2,6,19.1,8c-36.2-21.5-72.3-27.1-113.5-17.1l-50.8,15.8
		l4.3-8.2c17-7,33.6-13.2,51.5-17.4c20-4.8,39.1-4.4,59.2,0.1c-34.9-12.9-74.2,1.5-109.3,14.8l5.3-10l6.6-12.6l20-37.6l66.1-120.8
		l55.9-99c24.3-40.1,51.9-76.9,83.9-111.4l11.6,5.1c8.4,3.7,15.9,3.9,24.7,2.7c16.4-2.2,32.6-3.3,49-3.5c21.6-0.3,40.8-5.1,61-12.5
		c21.5-7.8,42.6-16.6,58.9-33.5c-18,13.8-37,22.9-58.1,30.3c-20.1,7-39.3,12.7-61,13l-31.8,2l-30.2,3.6c-7.2,0.9-14.4-5.7-21-8.1
		c-1.1-0.4,0.1-2.9,1.1-3c5-0.5,10,7.9,26.1,6.5l63.6-5.3c19.1-1.6,36.3-7.4,54.3-13.5c20.5-6.9,40.1-15.3,56.1-30.4
		c-14.3,8.3-27.1,17.3-42.5,22.6l-26.2,9c-8.2,2.8-15.8,4.5-24.1,5.1l8.8,1l-21.3,3l-65.9,6.6c-5.9,0.6-11.7,1.3-16.8-1.4l-10-5.3
		l1.8-1.9c2-2.1,7.1,7.7,27,4.7c25.1-3.8,49.7-4.7,74.5-5.8c-25-3.1-48.4,1.5-72.6,3.5c-9.6,2.3-17.7,1.7-26.4-4.7l2.8-2.1
		L1556.9,598.3z M1745.7,548.2c5.2-4.4,10.3-8.7,13.4-14.4c-10.4,10.7-20.7,18.7-33.6,26C1734,559.6,1739.5,553.4,1745.7,548.2z
		 M1557,599.8c5.2,2.7,13.2,4,20,3.3l28.1-2.9l41-2.1c15.9,0.1,30.1-5.2,44.9-9.9c15.1-4.8,28.9-10.4,42.5-18.7
		c8.3-5.1,17-9.4,21.8-18.6c-15.4,15.4-42,27.3-62.8,33.5c-14.2,4.3-28,10.1-43.3,10.3c-21.8,0.2-42.6,2-63.9,6.4
		c-9.8,1.8-18.6,1-27.3-2.6L1557,599.8z M1618,622.3l29-2.1c15.7-1.1,30-6,44.7-11.3c10.6-3.8,20.8-7.6,30.2-13.9
		c7.7-5.3,16.2-8.7,22.1-16.4c-17.7,13.2-36,22-56.3,29.1c-48.6,16.9-68.9,9.1-108.6,15.6c-9,1.5-16.5,1.1-25.2-2.3
		c5.2,4.2,12,5.3,18.5,4.5L1618,622.3z M1672.8,621.6c24.1-6.4,46.7-16.3,65.4-32.5c-14.5,8.5-27.4,17.8-43.6,22.4
		c-11.5,4.9-22.9,7.5-34.7,10.3L1672.8,621.6z M1583.4,636.3l45.7-3.3c19.3-1.4,38.2-4,56.8-9c17.3-4.6,32.6-13.8,46.3-25
		c-18.8,11.2-36.9,21-58.2,26.1l-46,6l-54.9,4.2c-8.7,0.7-15.3-1.4-23.2-5.4C1558.9,638.6,1571.1,637.2,1583.4,636.3z M1589.5,642.2
		l54.2-4.4c15.8-1.3,30.6-4,45.8-8c11.7-5.2,22.9-10.5,32.7-18.9c-15.7,9.1-30.7,16.6-48.3,19.9c-19.4,3.7-37.8,5.8-57.5,6.6
		c-17.9,0.7-35.3,4.1-53.3,3.4c-4.4-0.2-8.6-1.1-13.1-0.4C1562.6,643.6,1575.4,643.4,1589.5,642.2z M1594.6,648l75.1-6.9
		c19.6-1.8,41.9-15.4,57.5-28.1l-17.5,10.7c-13.8,8.7-28.4,13.8-44.7,15.3l-82.5,7.8c-16.4,1.5-31.2-1.2-47.6-4.7
		c13.5,5.1,28.1,7,42.6,6.5L1594.6,648z M1638.5,624.8l-11.7,0.8l-51.8,3.4c-9.7,0.6-17.5-1-26.3-5.1c7.2,6.5,16.6,7.6,26.3,7.1
		l84-6.4C1652.6,623.4,1646,624.3,1638.5,624.8z M1563.4,653.8l44.5,0l32.4-3.4c15.3-1.6,30.8-1.2,45.4-6.6
		c11.1-4.1,21.1-10.7,30.5-17.9c-14.6,7.5-27.2,16.6-43.6,18.5l-57.4,6.5l-28,1.4l-22,0l-31.2-5.1
		C1542.9,650.5,1552.8,653.8,1563.4,653.8z M1594.3,660.6l38.6-3.2c31.8-2.7,50.7-0.2,76.9-22.2l-24,12.6
		c-8.7,2.9-17.6,4.1-26.9,4.9l-70.8,6.2c-17.4,1.5-33.3-1.3-50.2-5c11.7,5.4,24.2,6.5,36.9,6.5L1594.3,660.6z M1566.9,665.6l37.8,0
		l23.7-2.1c16.1-1.5,31.9-0.8,48-3.7c9.7-3.8,19.2-7.7,26.8-15c-13.4,7.9-25.8,13.1-41.1,14.3l-56.5,4.4l-40.6,0.5l-26.1-3.7
		C1547.5,663.7,1556.7,665.6,1566.9,665.6z M1621.4,670.2l31.9-1.8c13.2-0.7,26.3-2.3,37.5-9.6c5.1-3.2,10.9-4.9,14.2-10.5
		c-16.1,12.3-32.8,17.8-52.3,18.4l-26,0.8c-28.4,3.5-56.1,3.7-84.8-0.3C1567.4,674.4,1594.2,671.8,1621.4,670.2z M1566.7,677.6
		l38.7-0.1l35.5-2.3c17.3-0.1,34.7-1.2,49.3-11.2c-10.8,3.9-20.1,7.6-31.3,8.1l-24.8,1.2l-41.5,3.3c-17.1,1.4-33.4-1.9-50.8-3.5
		C1549.6,675.4,1557.8,677.6,1566.7,677.6z M1593.5,683.9l29.8-2.7l30.6-0.3c15.6-2.1,30.9-5.9,43.2-16.3
		c-19.1,11.4-38.4,15-60.1,14.7l-49.1,3.5c-17.2,1.2-33.6-2.4-51-4.7C1554.8,684,1573.7,685.7,1593.5,683.9z M1619.9,687.3l33.9-0.4
		c13.8-2.3,27.2-5.5,38.3-14c-12.5,5.5-23.6,11.5-37.3,11.8l-35.3,0.7l-39.5,3.3c-14.9,1.3-29.1-3.3-44.1-4.5
		C1565.3,693.4,1590.5,689.8,1619.9,687.3z M1535.2,690.2c19,5.8,38.1,7,57.8,4.7c15.6-1.8,30.4-2.4,46-2c13.7,0.4,27.1-2,39.1-7.8
		l-28.1,5.7l-34.1,0.4c-18.7,1.4-36.9,4.8-55.7,2.3L1535.2,690.2z M1559.4,700.9l10.6,0.6l13.9-0.8c19.9-2.2,39-4.6,59.1-1.3
		c15.1-2.5,30.7-4.6,43.1-13.4c-17.9,7.8-36.2,13.1-55.6,10.2c-32.5-1.3-53.7,8.3-89.5,0.5c-3.1-0.7-6.9-0.8-10.1-0.4L1559.4,700.9z
		 M1534.9,703.3c20,4.9,40.3,5.3,60.9,1.5c12.5-2.3,24.6-2.1,37.1-0.9l9.2,0.8c9.7,0.9,19.4-2.7,28.1-6.5L1644,703l-27-1.8
		l-40.3,4.5C1561.2,707.4,1548.9,703.1,1534.9,703.3z M1597.2,709.8c10.8-2.2,20.4-2.1,30.8-0.9l15.9,1.9
		c10.1-0.7,19.3-4.7,28.2-8.6l-19.3,5.7c-6.1,1.8-12.5,1.5-18.8,0.4c-32.2-5.4-51.7,7.2-83,2.8c-4-0.6-8-0.9-12.1-0.6
		C1557.9,714.6,1577.3,713.8,1597.2,709.8z M1533,716.4c14.3,2.2,28.9,4.2,43.6,2.1l36.5-5.3l30.2,3.5c6.6,0.8,13.5-2.4,18.6-5.7
		c-10.1,3.7-18.1,5.4-27.7,3.1c-27.5-6.6-50.1,5.2-73.1,3.8l-17-1.1L1533,716.4z M1547.1,724.3c8.8,0.2,17.1,1.1,26-0.2l41.1-6
		c10.8-1.6,30.2,10.9,47.8-2.3c-10.8,4.3-18.8,6.2-29.1,3.5c-10-2.7-20.6-3-30.7-1.3l-29.2,5l-43.4,0l-0.5,0.8L1547.1,724.3z
		 M1616.5,723.1l29.5,4.2l11.2-4.1c-20.1,5.6-35.1-5.3-59.8,0.3c-19.4,4.3-38.5,6.3-58.4,5.5l-13.1,1.8l30-0.5
		C1582,729.8,1606,721.6,1616.5,723.1z M1598.8,729.1c14.5-0.6,27.5,0.2,41.3,2.8c5.3,0.4,10.7-0.2,14.9-2.7l-9,1.6l-23-3
		c-8.2-1.1-16.5-1.5-24.8,0.4c-15.1,3.5-29.7,5.3-45.2,6.9l-31,3.1l0.6,0.9l17.8-1.8C1560,735.5,1579.3,735.7,1598.8,729.1z
		 M1651.2,735.3c-7.9,0.9-14.6,0.8-22.2-0.1l-11.8-1.5c-10.7-1.3-20-0.8-30.2,2.3c-12.8,3.9-26.5,5.1-40,6.2l-21.1,3.5
		c4.5,0.6,8.9-0.9,13.3-1.2c18.7-1.1,36.4-3.9,54.6-8.5C1612.9,731.1,1635.8,742.1,1651.2,735.3z M1594.5,741.6
		c16.5-3.3,33.4,7.1,51.7-0.5c-20.2,3.6-36.4-4-51.2-1.1l-51.9,10c-6.8,1.3-13,1.7-19.2,3.9l23.2-3L1594.5,741.6z M1602.2,746.6
		c14.9,5,29.2,4.2,42.9-0.4l-23,2.4c-8.7-0.2-17.2-4.3-26.1-2.5l-50.4,10.4c-5.2,1.1-10.2,1.1-14.8,3.4l44.1-8.1L1602.2,746.6z
		 M1605,754.6c5.9,1.1,12.3,3.5,17.8,2.3l19.3-4.1l-0.7-0.9l-21.5,3.7l-20.9-3.5l-42.1,8.9l-31.2,7.6c3,0.4,5.5-0.6,8.4-1.3
		l45.5-10.5C1588.1,754.9,1596.1,752.9,1605,754.6z M1598.4,760.5c12.8,4.6,24.8,4.8,35.3-1.7c-12.3,3.8-22.9,4.8-33.9,0.1l-40.8,8
		l-28.2,8l26.2-5.9C1570.5,765,1583.8,762,1598.4,760.5z M1621.8,769.8l4.3-3c-11,3-21.2,3.2-32.2-0.5c-22,3.9-43.7,8.2-64.1,16.3
		l60-14.1C1600.7,770,1610.8,770.3,1621.8,769.8z M1585.5,776.4c17.5,3.7,34,1.3,48.3-6.4c-16,5.1-30.1,8.7-45.9,4.5
		c-18.2,3.7-36.1,7-53,13.5L1585.5,776.4z M1567.2,786.7c7.9-2.3,15.6-2.3,23.2-1.2c10.3,1.4,20.6,0.2,29.7-4.6
		c-12.5,3.4-24.3,4.5-37.2,1.7c-19.1,2.9-37.5,7.7-55,15.3L1567.2,786.7z M1595,793.3c5.5-0.2,10.7-0.4,15.2-3.1
		c-9.3,1.8-17.9,3.1-27.3,0.5c-14.8,1.9-29.9,3.4-42.9,10.3C1558.3,795.4,1575.8,791.4,1595,793.3z M1578.9,800.4l28.3-2.7
		c-4.7-1.3-9.2-0.5-14.2-0.1c-18.3,1.6-36.9,2.3-53.1,10.2C1552.9,804.3,1565.2,801.7,1578.9,800.4z M1578.8,808.4
		c8.7-1.5,16.7-1.4,24.4-4.1l-21.7,2.1c-14,1.6-27.8,3-40.5,8.4L1578.8,808.4z M1578,816.9c6.8-1.2,13.1-2.1,19.2-4.9l-15.2,2.6
		c-16.8,2.1-33.5,4.1-49,10.2L1578,816.9z M1521.9,835.9c16.2-4.4,31.8-7.4,48.4-9.5c4.7-0.6,9-0.3,12.8-3.3l-34,4.9
		C1539.6,830.1,1530.2,831.4,1521.9,835.9z M1533.6,840.3l33.7-4.9c5-0.7,9.7-1.9,13.9-4l-25.8,4.2c-14.8,2.4-29.2,4.3-42.1,10.4
		L1533.6,840.3z M1549.5,846.4c9.6-1.2,19.4-1.7,27.7-6.2l-23.6,4.5c-10.7,0.5-21,1.3-30.7,4.9L1549.5,846.4z M1537.4,856.2
		l10.6-0.9c7.1-0.6,13.8-1.2,20.1-4.1l-27.9,3.3l-36.4,6.1L1537.4,856.2z M1536.3,864.5c8.4-1.1,16.9-0.6,24.8-3.2l-20,0.8
		c-12.8,2.3-25.1,4.2-38,4l-4.2-3.2C1499.2,870.5,1523.2,866.3,1536.3,864.5z M1498.1,873.3c8.6,2.9,17,1.8,25.8,0.9l32.2-3.3
		l-0.6-1L1521,873l-11.1,0.5L1498.1,873.3z"/>
	<path class="st0" d="M1040.8,1430.4c-1.5,1.2-2.1,1.8-1.2,1c20.5,1.6-3.8,40.1-1.4,61.2c-8,0.3-3.5-14.5,0.4-27.1
		c3.4-11,8.7-28.3,2.6-32.2c0.3,3.7,1.1,7.4,0.4,10l-6.8,25.5l-4.2,20.1c-28.5-16.7-52.7-38.5-74.4-63.3
		c-19.8-22.7-35.2-48.4-46.5-76.2c-5-12.3-7.3-24.7-5.7-37.6c1.4-11.2,9.6-19.5,21-20c19-0.9,45.1,12.1,84,11.4
		c35.8-0.6,69.5-11,100.5-28.7c48.3-27.6,87.1-76.1,114.9-124.9c24,29.4-0.6,93.8-23.1,121.7c-13.9,17.2-33.7,27.6-53.5,36.3
		c-5.6,2.4-10.9,3.6-15.8,6.6c31.1-7.4,59.7-23.5,79.4-48.8c12.5-16,20.2-34.5,26.7-53.4c7.7-22.2,7.9-52.9-9.4-69.8l4.5-8.3
		c30.9,23.3,22.6,65.8,7,98.3c-14.6,30.5-38.2,55-68.8,70.1l-45.5,17.7c40.9-7.9,72.1-25.7,100-56.2
		c31.9-34.8,58.3-106.9,11.2-136.6l3.2-6.3c31.8,13.7,38.8,41.9,31.2,74.8c-7.2,31-25.1,57-49.2,77.4
		c-13.2,11.2-25.4,22.2-40.7,30.3c-19.3,10.3-39.9,16-60.8,21.2c25.1-2.3,61.7-14.7,80.6-30.4l40.3-33.7
		c19.3-18.7,32.3-42.8,39.4-68.5c4.9-17.6,4.1-36.1-4.4-52c-6.9-12.8-19.1-19.9-32.8-24.9l2.8-5.3c10.3,3,18.9,6.2,27.7,11.4
		c22.7,12.7,25.5,43.5,18.6,67.2c-8.5,29.1-24.8,55.6-47.9,75.6l-41.1,31.9c-17.3,13.4-37.4,20.6-58.4,26.5l-27.7,6.5
		c28.4-2.2,56.8-10.8,80.8-26.3c19.7-12.7,37.9-26.1,55.5-41.6c21.4-18.8,37.1-43.3,47.1-69.7c5.5-14.6,6.2-29.6,3.5-44.4
		c-5-27.1-29.7-37.1-55.8-42.1l2.7-4.4c15.3,1.8,29.4,4.5,42.5,11.5c34.2,18.4,29.9,59.6,12.8,91c-11,20.2-23.2,39-40.8,54.2
		c-19.2,16.5-39.2,30.7-60.4,44.4c-20.7,13.4-55.9,26.2-80,29.1l-13.2,1.6c21.6,1.7,41.7-4.3,61.3-12.3c12.6-5.1,24.5-9.7,35.9-17.3
		c22.4-14.9,44.3-29.5,64.6-47.4c19-16.7,33.3-37.7,45-59.8c16.5-31,17.5-72.8-18.1-88.7c-14.6-7-30-9.2-47-10.4
		c0-0.5,0.4-2.4,0.8-3.2c0.5-1,3.2-1.3,4.6-1.2c37.7,1.1,84.6,11.6,84.9,54.7c0.1,14.7-3.4,28.5-9.9,41.9
		c-10.9,22.3-38.7,57.6-58.9,72l-53.8,38.2c-14.6,10.3-30.1,16.3-46.7,23c16.6-2.1,31.3-8.8,44.7-18l63.6-44.2
		c21.4-14.9,53.1-54,64-78.2c6-13.2,8.7-27.1,7.4-41.6c-3.8-43.7-58.7-52.6-96.9-51.2l2.2-3.5c17.9-1.5,35.3-1.1,52.9,2.4
		c12,2.8,23,6.4,33.5,12.4c31.3,18.1,27.7,55,11.2,84.9c-6.5,11.7-14.4,21.7-22.9,32.1c-16.8,20.7-36.3,37.5-58.4,52.5l-51.2,34.7
		c-15.1,10.2-30.9,17-49,20c-15,2.5-28.6,7.3-42.7,12.3l-15,4.1c7.2,0.2,13.1-2.5,19.9-4.1l37.1-8.6c19.7-4.6,36.9-11.4,53.6-22.6
		l51.5-34.4c21.8-14.5,41.2-30,58.4-49.7c20.7-23.7,44.2-52.9,42.7-85.4c-2.3-50.1-77.8-60.4-119.8-53.6c0.1-2.3,1.7-4,3.7-4.2
		c16.6-1.6,32.5-2.9,49.1-1.3c19.9,1.9,39.2,6.7,56.1,16.6c34.7,20.2,28.7,61.1,8.1,91.9c-20.1,30.1-55.8,63.9-87.2,82.7l-64,41.9
		c-39.6,25.9-56.2,17.9-93.1,30c-12.1,4-23.9,5.8-36.2,6.5c11,1.6,21.3-1.3,32-3.6l-2,2.8c24.6-11.1,49.2-5.5,72-15.6
		c16.1-7.2,29.8-16.7,43.8-27.2l48.1-30.9c24.3-14.1,45.5-30.8,65.2-50.8c23.4-23.8,48.1-50.8,49-86.2c0.5-19.8-11.1-36.8-28.3-46
		c-34.1-18.2-72.7-18.8-110.8-14.1c-0.9,0.1-1.7,0.1-1.7-0.2l0.5-2.3c43-7.2,89.1-8.1,127.5,13.9c20.9,12,31.3,33.2,26.2,56.7
		c-4,18.5-12.4,35.3-24.9,50c-31.2,36.6-69.2,65.6-111.6,88.1c-18.5,9.8-34.6,21.4-50.3,34.8c-20.7,17.8-40.7,29.5-68.9,27.7
		c-14.2-0.9-27.3,0.8-40.4,6c-10.9,4.3-22,5.3-33.6,3.7c10,4.2,21.3,3.2,31.7-0.3c14.8-4.9,27.9-5.2,43.5-3.6
		c19.2,2,41.1-4,55.4-17.6c20.5-19.4,41.1-36,66.1-49c44.9-23.4,66.7-40.2,103.4-74.5c17.8-16.7,31.7-36.7,39.2-59.8
		c10.3-31.7-6.9-58-36.2-70.6c-41-17.6-81.6-16.4-125-8.8c0.8-2.5,2.8-3.8,5.4-4.3c21.2-3.6,41.7-6.3,63.4-5.7
		c37.1,1.1,88.4,12.5,106.2,46.7c15,28.8-5.1,62.9-25.3,86.2c-14.4,16.6-31.1,29.9-48.4,43.5c-23.7,18.6-48.3,33.3-75.1,47
		c-24.5,12.5-47.6,27.4-65.8,47.9c-9.7,10.9-19.2,19-33,24.2c-13.5,5.1-26,5.1-39.8,0.8c-13.1-4-27.7-1.5-40.7,1.4
		c-9.1,2-16.9,1.9-26.2,0.3c7.6,4.2,15.4,3.9,24.1,3.1l27.6-2.5c8.2-0.7,15.8,3.7,23.1,7.7c13.8,7.6,41.8-5.1,54.7-17.9l11.8-14.4
		c18.8-19.9,40.6-35.4,65.4-47.5c30.1-14.8,57.8-31.1,84.4-51.6c29.7-22.9,63.5-49.9,76.7-85.3c14.5-38.8-11-67.9-47.5-81
		c-28.6-10.3-58.5-14.1-89-12.2l-47.6,6.4c-0.2-2.1,1.8-4.2,4.6-4.7c19.5-3.5,38.1-6.5,58-7c31.7-0.7,62.6,3.4,92,14.7
		c36.6,14.1,67.4,48.8,47.4,85.9c-8.6,15.9-19.9,29.8-33.5,42.4c-42.5,39.3-91.3,70.4-143.6,95c-25.2,11.9-47.1,28.2-65.6,48.5
		l-16.6,20.7c-13,13.7-41.7,25.6-57.6,13.1c-5.5-4.3-11.5-7.7-19.3-7.6l16.8,13.1c6.3,4.9,12.6,9.1,21,8.7
		c14.6-2.8,28.2-9.3,39.2-19.1c9.1-15.1,19.2-28.2,32.3-39.8c17.5-15.8,36.4-28.2,58-38c39-17.7,74.9-39.1,109.4-64.5
		c26.5-19.5,59.8-45.9,74.6-74.5c20.5-39.6-14.8-74.3-52.8-87.7c-52.7-18.5-106.4-17.9-160.9-6.2c0.4-3.3,2.7-3.7,5.9-4.6
		c41.8-10.8,84.3-11.7,127-4.9c26.3,4.1,51.2,11.1,73.9,24.8c16.8,10.5,30.3,24.8,36,43.9l-31.1,58.6c-14,15.8-29.8,27.9-46.7,40.5
		c-40.4,30.3-83.2,55.1-129.5,75.3c-31,13.5-57.7,33.1-79.2,59c-6.4,8.2-11.3,16.1-15.6,25.5c-9.3,8.1-20.3,13.9-32,17.7
		c-10.4,3.4-20.1,0.9-28.5-5.9c-7-5.7-12.2-12.7-17.8-20.4c-7.3-3.1-15.6-2.8-23.6-1.7c-8.3,0.7-15.6,0.6-24.2-0.4
		c2.7,2.4,6.3,3.6,10.1,3.6l24.1,0.2c8.1,0.1,14,3.4,18.3,9.8c9.9,14.7,23,27.2,40.8,22.5c13-4.3,25.1-10.8,35.1-20
		c3.2-9.4,7.3-17.1,13.3-24.9c21.8-27.7,49.5-48.7,82.2-62.7c48.5-20.8,93.8-46.2,136.4-77.4c9.8-7.1,18.4-13.7,26.9-22.1
		l-10.4,19.7c-45.6,32.9-94.3,59.1-146.3,80.4c-34,13.9-62.5,35.4-84.7,64.5c-7.3,8.8-11.8,18.2-14.7,29.3
		c-10.4,8.7-22,15.6-34.7,20.1c-12,3.8-24.3,1.3-31.9-8.5L1141,1377c-2.1-2.7-4.8-5.2-8.3-5.2l12.4,17.1
		c11,15.1,22.4,31.3,44.4,22.7c11.8-4.6,22.8-10.4,33-18.2c4.9-3.7,5.4-17.1,16.2-31.9c25.7-35.5,54-55,94.5-71.4
		c44.7-18.2,87.1-39.6,127.1-66.7l1.5-1c0.3-0.2,1-0.3,0.9,0l-0.8,1.5l-5.7,10.4c-32.1,20.5-65.6,37-101.1,50.7l-43.8,19.3
		c-21.6,10.8-39.6,25.5-55.1,43.9c-8.4,9.8-16.8,19.6-21.2,31.8l-7,19.2c-24.1,14-52,35.5-72.1,11.1l-24.6-36.5
		c-2.3-3.5-9.1-4.1-13.1-4.5l-33.5-3.5c-1.3-0.1-1.4,1.4-0.1,2.1l32,5c8.1,1.3,13.1,4.6,17.5,11.4l21.2,32.5
		c19.8,25,50.8,3.2,74.4-11.9c3.6-6.6,5.9-13,8.1-20.2c6.4-15.6,16.7-28.4,28-40.8c13.3-14.5,28-26.2,45.5-35.4l51.3-22.6
		c30.4-11.7,59.2-25.1,87.1-41.8l1.9-0.3l-6.1,11c-23.8,12.5-47.8,22.6-73.1,31.7c-46.8,16.9-83.1,33.3-113.4,73.7
		c-9,12-16.3,23.8-20.8,38.5c-0.9,2.9-2.5,8.8-4.9,10.8c-13.1,10.4-27.3,18.4-42.6,24.1c-28.4,10.5-41-15.4-54.6-39.1
		c-5.2-9-11.9-14.8-22.3-17.2l-31.8-7.2l-1.5,1l20,6.2c9.2,2.9,19.5,5.1,26.6,12.1c5.8,5.8,9.3,13.4,13.6,20.3l13.1,20.9
		c8.6,11.1,21.8,14.9,35.2,10.5c16.7-5.5,31.9-14.1,45.6-25.5c8.1-6.7,18-68.7,91.7-105.3c19.4-9.7,38.7-17.3,59.2-24.6l54.5-22.6
		l2-1l-4.8,9.4l-59,21.7c-48.1,17.7-88.1,36.7-116.2,81.9c-7.3,11.8-13.8,23.7-16.8,37.3l-4.3,21.6c-20.6,17-52.7,39.2-77.6,27.2
		c-11.4-5.6-19-15.6-23.5-27.5c-6.2-16.6-16.3-32.2-32.1-40.9l-33-15.6c-0.6-0.3-1.1,1.2-0.6,1.6l17.6,10
		c13.4,6.1,26,13.8,34.8,26.1c6,8.3,8.6,18.2,12.2,27.5c9.2,24.2,33.8,35.5,57.9,26.3c15.8-6,30.2-14.5,43-26.2c3-2.7,5.2-8.9,6-13
		c3.8-20.3,11.8-37.8,23-55c28.5-43.5,68-62.4,115.6-79.3l49.1-17.5c-0.8,2.4-2.3,5.3-4,7.4l-50.8,17.2
		c-48.8,18.1-86.7,41.6-112.2,88.1c-8,14.6-13.5,28.9-16.9,45.1c-1.3,6.2-5.1,12-9.9,16c-12.6,10.4-26.3,18.8-41.2,24.3
		c-28.6,10.6-56.2-4.8-64-33.6c-3.4-12.4-7.7-25.1-17.3-34.2c6.6,13.1,12.1,24.8,14.6,39c5.5,31.6,38.8,46.7,67.6,36.3
		c17.4-6.3,33.6-16.2,46.5-29.3c6.5-6.6,7.2-16,9.9-24.5c9.3-29.5,25.4-56.4,47.9-77.8c19.4-18.4,41.9-31.3,66.6-41.4l54.8-19.4
		c1.5-0.1,2.4,0.1,2,0.7l-3.7,5.5l-48.9,17.1c-29.6,12.4-56.6,29.9-77.6,54.5c-19.6,23-31.3,50.1-40.6,78.7
		c-5.7,17.5-33.2,34.9-51.4,42.1c-17.4,6.9-36.2,5.8-52.2-3c-15.4-8.5-23.7-22.8-24.9-40.2c-1-13.8-7-27-15.2-37.9
		c-6.3-8.3-15.7-13.7-25.5-16.6l-13.4-4c-1.5-0.6-2.6-0.4-0.8,0.6l11.9,5.6c24.4,9.3,38.7,31.3,39.7,57.4c0.4,10.9,3,21.5,10.4,29.6
		c17.7,19.1,44.5,25.2,69.1,16.8c16.5-5.6,30.6-14.9,43-27c4.7-4.6,7.1-10.6,8-16.6l1,8.9c14.6-40.3,28.6-76.7,61-106.4
		c20.3-18.6,43.4-33.1,69.3-42.4l33.3-12.1l1.8-0.1l-3.4,6.7c-28.6,8.8-55.4,21.4-79.3,39.4c-23.1,17.5-40.6,38.7-53.8,64.4
		l-26,60.9c-5.2,12.1-1.5,13.7-16.1,19.8l-1.7,0.3c6.6-7.5,13-13.6,13.6-23.9c-5.3,8.1-11.7,13.6-18.8,19.9
		c-26.9,23.8-65.8,26.4-95.5,5.8c-9.7-6.7-15.8-16.4-18.2-27.7c-8.2,27.1,21.9,41.5,47.1,46.5c1.9,0.7,0.4,1.2-1.3,0.9l-15.3,0.8
		c-12.9-2.4-25.3-9.1-33.2-19.4c-8-10.4,2.9-32.5-1.5-55.3c-5-25.8-22.3-42.2-48.4-41.6c23.4,6,41.7,20.8,43.3,46.4
		c0.9,13.8-0.7,27.2-2.4,41.1c-2.1,17.3,11,23.2,26.3,30.4l-16-1.1c-6.1-0.4-13.1-6.9-15.5-12.5c-6.8-15.9,9.7-56.2-5.5-79.6
		c-5.2-8-12.5-12.7-20.8-17.8c-0.8-0.5-1.6-0.1-2,1.3l-17.7-3.5l-1.2,1.4l12.4,3c12.2,3,23.2,11.9,27.4,24
		c4.1,11.8,2.4,24.2,1.5,36.5l-2.3,29.1c-0.4,5.4,2.2,11,6,14.6l1.2,1.1l1.1,0.9c0.3,0.2-1.2,0-1.7,0c-28.1,2-1.6-57.9-12.6-83.1
		c-7-16-25-24.2-41.5-23.2c20.8,3.8,41.2,18,39.1,38.7l-4,40c-0.8,8-0.8,15.7,1.8,23.3c1.4,1.6,0.6,1.6-0.8,0.7
		c-5.3,0-8.1-2.7-8.4-7.5c-1.4-19.9,6.2-39.5,4.5-60.4c-1-14.5-11.5-26.8-26-27.9c-0.7,0.2-2.4,0.8-2.1,1.2l1.2,1.9
		c27.3,5,22.9,34.6,18,60c-1.8,9.4-2.9,18.6-0.7,27.7c0.6,1.2,1.1,2.2,0.5,1.1c-2.8-0.4-6.3-1.6-6.8-3.3c-5.9-19.5,7.7-42,3.5-66.3
		c-1.6-9.2-8-17-17.6-15.6l-9,1.3c-2.2-0.4,0,0.2,1.7,0.6c5.2-0.1,10.3-0.5,14.4,2.9c16.8,14.2-4.7,52.4,1.3,75.6l-4.9-2
		c-1.3-0.5-2-4.4-2-6c-0.6-25.8,14.6-50.7,1.7-66.7c-4.4-1.8-7.8-1.8-12.6-1c-1.6,0.4-1.8,0.9,0.1,1c29.7-0.6,2.7,43.6,6.3,67l0.3,2
		c0.1,0.3,0.3,0.8,0.1,0.7l-2.5-0.7c-13.6-4,12.8-54.3,2.9-64.4C1047.3,1431,1043.3,1430.5,1040.8,1430.4z M1237.2,1421.2
		c-19.2,14.7-50.4,36.1-72.4,25.8c-25.1-11.7-24.6-52.7-58-63.9l-31.1-10.4c13,10.9,33.9,10.6,47.2,25.3
		c10,11.1,15.6,24.6,22.2,37.4c10,19.3,29.9,26,49.8,18.5c15.3-5.8,29.1-14.5,41.9-25.1c5.1-4.2,6.5-11.2,4.7-16.9
		C1240.7,1415.3,1239.7,1419.2,1237.2,1421.2z"/>
	<path class="st0" d="M1525.9,1101.5c-19.3-40.4-69-55-111.1-60.7c-45-6.2-89.5-5-133.7,7c0-1.4,1.5-4.1,3-4.6
		c43.2-12.3,87.1-14.7,131.8-10c45.4,4.8,92.4,19.7,114.6,60.9L1525.9,1101.5z"/>
	<path class="st0" d="M1261.4,1482.2l7-18.9c8.5-19.7,16.9-38.7,27.7-57.2c27.5-46.7,68.3-74.4,118.7-92l-4.4,8.4
		c-50.1,18.5-89.8,54.3-114.7,101.3l-25.3,53.5L1261.4,1482.2z"/>
	<path class="st0" d="M1532.6,1089.4c-11-18.9-25.6-32.2-44.5-41.6c-13.2-5.8-26.1-11.6-40.7-14.5c-54-11-109.2-7.5-162.2,6.7
		c0.4-3.8,3.1-5.2,6.6-6.2c65.2-18.4,149.9-24.4,207.6,14.8c14.3,9.8,36.3,36.9,35.1,38.5L1532.6,1089.4z"/>
	<path class="st0" d="M1295.4,1459.9l-14.1,10.2c11.9-28.2,26.2-55.1,45.4-79.5c21-26.7,48.4-46.4,79-60.6l-6,10.8
		C1347.5,1370.1,1321.4,1406.3,1295.4,1459.9z"/>
	<path class="st0" d="M1327.2,1435c-4.1,6-11.5,9.7-17.2,14c22.1-41.9,44.7-71.8,84.1-97.6l-8.6,16.2
		c-15.5,11.4-28.9,24.4-39.7,40.2L1327.2,1435z"/>
	<path class="st0" d="M1582.1,575.9c3.9-4.8,9.9-6.2,16.1-7.7l48.5-7.5c28-4.3,54.6-14.2,79.7-27c10.7-6.1,20.1-12,27.9-21.2
		l1.8,0.1c0.4,0,0.6,0.9,0.8,1.5c-9.1,10.6-19.6,18.2-32,25c-30.2,15.9-62.7,25.5-96.7,28.8L1582.1,575.9z"/>
	<path class="st0" d="M1594.1,566.3c2.7-2.3,6.9-6.1,11.1-6.8l53.1-9.1c24.8-4.3,71.5-22.7,89.9-39.3c0.8-0.7,3.9,0,4.4,0.2
		c-7.8,8.2-16.8,13.9-27.1,19.2c-31,16.1-64.1,25.7-98.7,29.9L1594.1,566.3z"/>
	<path class="st0" d="M1609.2,555.7l10.3-6.2l45.2-8.6l22.8-7.3c16-5.1,31.5-11.1,45.6-20.5c3.8-2.5,6.6-5.4,11.7-2.6l-9.5,6.9
		c-24.4,13.9-50.6,23.3-77.9,29.9L1609.2,555.7z"/>
	<path class="st0" d="M1627.3,545.1c3.9-2.2,8.7-6.1,13.4-7c16.2-2.9,30.9-7.3,46.3-12.8c12.1-4.4,23.1-8.4,34.6-14.8
		c2.4-1.3,7.7-0.9,10.7-0.6c-14.6,9.2-29.6,15.5-45.7,20.5l-25.1,7.8L1627.3,545.1z"/>
	<path class="st0" d="M1685.3,522.2c-11.8,4.2-23.1,8.7-35.5,10.2c9.2-6.1,18.9-8.4,28.7-11.8c11.1-3.9,21.5-8.6,33.8-9.3
		C1703.7,516,1694.7,518.9,1685.3,522.2z"/>
	<path class="st0" d="M1352.1,1411.7l23.9-27.5C1369.9,1394.7,1361.9,1403.5,1352.1,1411.7z"/>
	<path class="st0" d="M330.8,1470.4c17.4-9,35.3-13.7,53.6-18.8c16.8-4.7,32.9-9.6,50.4-11.5l72.2-7.9c-1.3,1.7-3.7,3.5-6.1,3.8
		l-53.9,7.1c-15.1,2-29.5,3.5-44.2,7.7c-23.2,6.5-46.1,12.1-68.2,22c-16.1,7.2-30.5,18.5-42.4,31.4c15.3-10.9,28.5-22.3,45.5-29.4
		l62.3-19.5c17.6-5.5,35.2-7.7,53.6-9.4l48.2-7.7c-2.5,3.8-6.2,5.2-10.8,5.9l-58.2,8.8c-30.7,4.6-60.1,13.3-89.2,23.8
		c-21.8,7.9-41.9,20.2-56,38.6c16.9-15.2,33.3-27.3,54.7-34.8c31.5-11,63.4-19.5,96.5-25.1l55-9.2c-1.3,1.5-4.1,4.4-5.9,4.8
		l-37.4,6.6c-40.7,5.9-80.1,15.4-118.3,30.6c-20.3,8.1-35.9,21.9-50.3,38.6c-7.5-11.5-12.8-23.8-14.2-37.3
		c-2.9-28.9,1.6-56.6,10.5-84.2c21.1-64.9,64.5-142.6,98.1-203.6c8.9-16.1,18.3-30.2,29-45c15.1-21,27.1-42.9,39.5-65.7l63.4-116.7
		c24.1,38.6,56,57.1,100.6,66.1c31,3.3,61.3,0.5,90.7-9.4l58.9-20c-0.6,2.3-2.2,5.2-3.7,5.9l-46.8,19.4
		c-31.7,13.2-65.7,17.8-99.9,11.1c-25.3-4.9-47.3-17-68.6-32c5.3,7.8,13.9,11.6,21.8,16.2c45.2,27.4,97.6,28.5,145.9,7.8l47.4-20.3
		l-3.7,6.9l-42.1,20.7c-43.7,21.5-93,18.3-136.4-5.3c17.7,13.3,40.6,18.8,62.3,22.1c27,1.6,52.1-2.5,75.4-15.3l38.9-19.4l-5,9.8
		l-6,12l-7.5,14.9c-39.2,74.6-79.6,148.8-121.7,222.4c-27.1,47.4-58.1,92.2-92.9,133.7l-6.1,7.6c-27.3,8-61.3,3.9-85.1,8.5
		c-26.8,5.1-52.3,13.1-78,22c-22.9,7.9-45.4,26.4-60.1,45.3C301,1492.5,313.6,1479.4,330.8,1470.4z M657.8,1072.3
		c20.6-0.4,40.8-5.5,57.3-17.6c-32.6,17.8-67.7,21.3-103.3,10.1c11.2,6.5,24.3,6.8,36.9,7.6C651.6,1072.8,654.3,1072.8,657.8,1072.3
		z M547.8,1212.6L524,1210c-13.3-1.4-26.5-2.1-39,0.9c16.1-1.4,31.1-0.8,47,1.2C537.4,1212.8,542.6,1213.2,547.8,1212.6z
		 M548.9,1221.7l-18.9-1.7c-20.3-1.8-40.6-4.3-60,0.9c17.6-2.2,33.7-2.3,51,0.1C530.6,1222.3,540,1222.2,548.9,1221.7z
		 M549.8,1228.5c-10.8,0.4-20,0.7-29.7-0.4l-19.2-1.3c-12.6-0.9-24.9-1.8-37,0.8l14-0.4l16.2,0.9
		C513,1229.2,531.9,1232,549.8,1228.5z M526.6,1238.4c7.2,0,13.6-0.5,19.6-3.2c-14.2,1.8-27.2,2.2-41.1,1l-32.4-2.8
		c-7.4-0.7-15.3,0.4-21.8,3.4c11.5-2.3,22.4-1.7,34.1-0.7l27.9,2.4L526.6,1238.4z M542.8,1243.3c-23.4,3.3-44.6,1.6-66.8-2.2
		c-9.5-1.6-18.6-1.7-27.2,1.7c13.7-2,25.9-0.3,39.3,1.9C506.7,1247.8,525.6,1248.7,542.8,1243.3z M519.2,1255.5
		c8.7-0.1,17.3-1.5,24.9-5.2l-26.6,3.3c-15.5,0-30.9-3.3-46.5-5.6c-10.1-1.5-20.1-1.7-29.1,2.9c25.3-6.6,45,4.8,67.8,4.7
		L519.2,1255.5z M544.8,1257.3c-27.5,7.9-48.1,3.5-74.2-1.8c-10.6-1.9-21.2-2.9-30.8,1.5c11.1-2.1,20.9-2.5,31.8,0.5
		c15.7,4.4,31.6,7.7,47.8,6.2C528.7,1262.5,537.4,1261.5,544.8,1257.3z M503.2,1271.8c13.4,0.2,26.5,0.1,37.9-5.7
		c-21.3,5.1-42,3.8-63.1-1.3c-15.8-3.8-32.4-7-47.1,0.1C459.1,1256.5,475.8,1269.6,503.2,1271.8z M539.2,1274.4
		c-13.7,2.3-26.8,3.8-40.4,2l-34-7c-12.3-2.5-24.6-3.5-35.9,1.6c12.6-2.4,23.7-2.6,36,0.2l29.2,6.7
		C509.5,1280,525.3,1280.1,539.2,1274.4z M483.8,1282.8c18,3.9,36.5,5.4,53.3-0.6c-19.1,2.7-37.7,2.5-56.3-2.2
		c-24.5-6.1-46.4-10.7-67.6,3c15.2-6.4,29.2-9.2,44.7-5.9L483.8,1282.8z M493.5,1292.1c15.5,1.2,30,2.3,43.6-3
		c-18.7,3-36.5,2.9-54.6-1.8c-21.5-5.5-48.3-11.1-66.5-0.3c10.8-3.2,21-6.1,32.3-3.9L493.5,1292.1z M474.3,1295.4
		c21,5.3,41.9,7.1,61.8,0.7c-18.9,2.9-36.4,2.9-54.7-1.7l-36.3-6.7c-11.9,0.4-23.1,0.4-33.3,6.3l16.3-3.6
		C443.9,1288.5,458.5,1291.9,474.3,1295.4z M535.2,1303.1c-20.3,3-39,2.5-58.6-2.7c-25.1-6.7-50.8-9.9-73.8,2.6
		c10.8-2.5,20.4-6.5,31.6-6.6C467.7,1296.3,496.3,1315.6,535.2,1303.1z M536.9,1309.4l-21.5,2.2c-37.8,3.8-73.8-25.8-121.6,0.5
		c12.5-3.6,23.3-8.4,36.4-8.7c14-0.4,28,2.2,41.8,6C493.8,1315.2,515.8,1315.7,536.9,1309.4z M502.5,1320.1c11.3,0,21.8,0,31.7-4
		c-23.3,3.8-45.1,2.4-67.5-3.9c-27.3-7.6-56.7-5.9-80.9,8.7c21.7-9.3,43.3-13.9,66.4-8.9l29.5,6.6
		C488.4,1320,495,1320.4,502.5,1320.1z M467.3,1322.5c21.7,5.7,42.9,6.4,63.9,0.8l-17.6,1.4c-16.5,1.3-32.6-1.5-48.8-5.8
		c-25.5-6.8-52.4-6.8-76.1,5.1c13.1-3.2,24.4-7.3,37.7-7.4C440.2,1316.4,453.3,1318.8,467.3,1322.5z M492.4,1333.5
		c14-1.2,26.6,0.7,38.8-4.7c-23.8,4-45.9,2.8-68.9-3.4c-26.5-7.1-55-6.8-79.4,5.6c23.8-8.7,47.2-10.5,71.7-4.4
		C467,1329.8,479.2,1332.3,492.4,1333.5z M531.1,1335.3l-27.3,2.3c-16.3,1.4-31.9-3-47.9-6.6c-24.8-6.6-50.8-5.7-74,4.7
		c13.6-3,26.2-7.2,40.1-6.8c14.5,0.4,28.2,3.6,42.2,6.9C488,1341.6,507.9,1341.3,531.1,1335.3z M527.9,1341.3l-22.4,2.2
		c-17.8,1.8-35.3-2.1-52.8-6.4c-25.3-6.2-51.2-6-74.9,4.7c11.9-2.5,22.4-6.2,34.6-6.5c15.3-0.4,30.4,2.3,45.5,6.1
		C481.3,1347.3,505.2,1348,527.9,1341.3z M453.6,1347.2c24.6,6.3,48.8,6.7,72.6,0l-28.2,2.6c-34.3,3.2-77-25.1-125.2-1.1
		C402.9,1338.9,422.5,1339.3,453.6,1347.2z M522.9,1353.3l-26.1,2.3c-38.6,3.4-80.8-25.5-128.1,0c11.7-4.1,22.3-6.8,34.7-8.6
		c15.1,0.1,30,2.1,45.1,5.8C473.5,1359,498.6,1360,522.9,1353.3z M483.5,1362.9c14,0.4,27.2-0.2,39.6-4.7l-31.7,3.3
		c-32.3,1-59.6-13.2-91-10.2c-13.5,1.9-27,3.9-37.5,12.8c31.5-16.8,58.6-11,91.7-3.6C464.2,1362.7,473.1,1363.7,483.5,1362.9z
		 M452.3,1366.6c22.8,3.5,45.5,4.2,66.9-2.5c-25,4.1-48.4,4.5-72.5-1.9c-12.8-3.4-25.6-4.7-38.6-5.5c-15,0.4-30,1.7-42.1,10.5
		C394.5,1354.7,422,1359,452.3,1366.6z M514.1,1370.2l-32.1,2c-25.6,1.6-49-9.1-75-9.5c-15.7,0-31.1,2-44.2,10.4
		c26.4-9.8,48.4-9.3,75.5-3.3C461.6,1374.8,492.1,1376.6,514.1,1370.2z M484.6,1379.4c9.9,0,19-0.9,27.6-4.2
		c-14,1.2-27.2,4.4-40.7,2.4l-36-5.3c-13-1.9-25.3-3.7-38.6-3.5c-16.7,1.3-33.2,5.6-47.1,15.2c32.5-15.9,56.4-15.1,91-7.7
		c9.8,2,19.2,3.2,29,3.1L484.6,1379.4z M486.1,1384.3c8.3-0.3,16.5-0.8,24-4.2c-18.6,3.4-36.4,3.9-55.1,1.9c-16-1.7-31-6.1-46.7-7
		c-21.2-1.1-42.1,2.3-59.4,14.1c22.3-10.3,44.7-15.3,68.8-10.3c14.8,3.1,29.3,4.8,44.5,5.6C470.2,1384.8,478.1,1385.6,486.1,1384.3z
		 M475,1388.9c9.8,0.3,19.2,0.2,28.2-2.8c-32.2,4-57.4,0.3-88.3-4.8c-24.5-4-50.2,1.6-71.1,14.2c15.6-5.9,30.4-12.5,47.3-12.6
		c10.6-1.3,20.6-1.3,31,1C439.6,1387.8,456.9,1389.7,475,1388.9z M390.9,1388.5l39.2-0.8c-28.6-4-68.8-2.1-92.1,16.4
		C354.4,1395,371.6,1388.9,390.9,1388.5z M333.2,1411.9c11.8-6.9,22.2-12.6,35.1-14.7c16-3.4,32.1-3.4,48.4-4.7l29.3,0.2l17.9,1.1
		c14.9,0.9,29.6,0.4,43.2-4.5l-16.2,2.5l-35,0l-18-1.1l-13,0.1c-22.6,0.1-44.4,0.6-66.1,7.2C349.3,1400.9,340,1405,333.2,1411.9z
		 M451.2,1397.4l33.7,0.3c5.2,0,10.5-1.3,15.3-2.5c-13,0.6-25,2.2-37.7,1.4l-14.5-0.9l-26.3-0.3c-21.8,1.3-43.1,1.9-64.4,7.7
		c-10.1,3.6-19.7,8.3-27.3,16.1c16.1-10.4,32.7-17.3,51.7-18.7l41.8-3.1L451.2,1397.4z M323.2,1429.8c11.8-8.4,22.7-14.6,36.1-18.7
		c20.1-5.1,40.3-8.5,61.2-8.7l64.5-0.6l14-2.1l-0.6-0.8l-14.6,1.8l-33.5-0.2l-28.3,0.3l-41.9,3.3
		C358.5,1405.7,337.8,1414.4,323.2,1429.8z M366.2,1415.7l57.2-8.4l32.9-0.9l28.5-0.8l14.1-2l-0.6-0.9l-14.7,1.8l-60.2,0.7
		c-21.8,0.3-42.6,3.6-63.6,9.1c-15.3,4.6-29.7,11-39.9,23.9C334.2,1427.2,348.2,1419.6,366.2,1415.7z M304.7,1457.9
		c12.1-10.5,23.2-20.6,37.3-28c12.4-5.1,24.7-10,38.1-11.7l48.9-6.1l15.9-0.9l27-1l19.2-1.8l-10.2,0.2l-30.5,0.7l-23.1,1.1
		c-25.2,1.2-69.6,6.8-89.8,19.1C325.2,1437.2,313.7,1446.4,304.7,1457.9z M459.8,1415.5l21.2-0.3c8.7-0.1,17.2,2,25.2-0.9
		c-7.8,0.3-14.9,1.7-22-0.4c-6-1.7-12.4-0.9-18.7-0.4l-70.3,5.5c-14.5,1.1-27.8,4.9-41.4,9.6c-15.7,6.4-30.9,14.1-41.7,27.9
		c16.7-13.7,33.8-23.3,54.6-28.9C397.1,1419.3,427.9,1415.9,459.8,1415.5z M373,1431.9c35-8.8,71.4-12.6,107.4-11.5
		c9.4,0.3,18.1,1.2,26.8-2.2l-16.3,1.2l-31.4-1c-50.1,2.9-108,5.7-146.6,41.4c-6.6,6.1-13.2,11.9-17.9,19.6
		C316.7,1455.7,341.7,1439.8,373,1431.9z M291.9,1487.8c12.8-11.4,23.7-22.3,37.7-31.2c40.9-22.8,100.1-33.2,145.8-31
		c11.4,0.5,22.2,0.3,32.8-3.3c-11.7,1.2-22.4,2.8-33.7,1.4c-8.1-1-16.1-0.2-24.3,0.3l-14.1,0.9c-32.1,2.1-63.2,8.3-92.6,21.5
		C322.2,1455.8,305.9,1470.2,291.9,1487.8z M313.4,1474.8c11.6-9,23.3-15.7,36.9-20.6c22.2-8,44.2-14.9,67.5-19.2
		c22.4-4.1,44.3-3.5,66.6-4.5c8.4-0.4,16.4-1.5,23.8-4.3l-36.2,2.9c-29-1.2-57,1.9-85,9.7c-42,11.7-69,22-97.3,57.1L313.4,1474.8z"
		/>
	<path class="st0" d="M656.9,824.4c-21.6,18.3-49.1,35.6-62.9,61.7c-10.7,20.3-8.4,43.2,5.8,61.2c35.9,45.6,121.2,42.6,174.8,33
		c-0.3,2.7-2.1,4.1-4.7,4.5c-47.4,7.5-101.4,13.8-146.4-4.3c-18.1-7.3-33.7-18.4-44.7-34c-12.9-18.4-13.9-39.9-2.4-59.3
		c8.6-14.5,20.1-26.7,34.1-36.8L655,818c17.8-12.9,34.4-26.3,53.5-37.4c43.3-25,80-59,103.7-103.4c2.5-4.7,3.4-10,8.2-12.8
		l31.8-19.1c19.2-11.5,38,1.1,50.5,18.7c10,14.2,25.7,19.5,42.4,15.3c11.2-2.9,22.9-4.6,32-12.3c-12.2,5.1-24.1,8.3-37.1,9.9
		c-10.4,1.6-20.4-1.5-27.7-8.4c-4.9-0.3-8.8-12-18.8-22.1c-7.4-7.5-18.4-14.4-29.4-12.5c-12.5,2.2-22.2,10.4-32.9,16.2l-17,11.2
		c-3.5,11.5-9.3,20.4-15.7,30.2c-22.8,35.1-53.2,62.5-89.4,83.6c-20.3,11.9-38.5,25.7-57.9,39l-56.8,39.1
		c-12.8,8.8-23.3,19.7-31.3,32.6c-12.9,20.8-11.9,44.9,2.6,64.6c45.1,61.5,138,49.2,205.2,37c-0.6,3.1-2.4,4.6-5.1,5.1l-70.5,11.4
		c-20.5,3.3-40.7,2.4-61.3-0.2c-44.6-5.5-90.7-26.9-102.8-72.6l35.4-68.7l42.9-29.3l80.3-51.5l38.4-24.7
		c25.9-16.7,46.2-39,63.4-64.6c5.6-8.3,12.7-15.5,15.9-25.1c1.8-5.2,2-10.9,7.1-14l36.8-22.9c24.5-15.3,48.1,11.9,59.5,35.1
		c0.6-3.2-1.3-5.4-2.4-8c-10-23.9-32.8-49.5-56.8-34.9l-38.5,23.4c-7.5,4.5-6.5,17.2-15.1,29l-23.8,32.3
		c-14.3,19.5-32.4,35.1-52.7,48.2l-36.5,23.6l-85.7,53.1l-25.6,15.7l6.7-12.8c45.7-25.6,90.4-51.4,133.8-80.9
		c17.9-12.2,34.7-25,48.7-41.3l32.8-43.4l11.5-26.6c14.3-10.3,28.9-20.2,44.5-28.2c10.8-5.5,22-5.6,31.6,2.3
		c11.7,9.6,21.6,22.5,26.1,37.4c3,9.9,9.4,17.7,21.3,18.6c16.8,1.3,35.8-2.2,50.8-10.8c-16.2,4.2-32.2,8.7-48.2,6.8
		c-28.6-3.3-17.7-31.2-46.7-58.3c-10.1-9.4-22.5-10.4-34.7-4.1c-16,8.2-31,18.2-45.2,29.6c-3.4,2.7-3.9,9.7-4.7,13.1
		c-0.1,0.3-1.4,0.5-1.3,0.2l0.3-1.9c1.2-6.5,0.5-16,6.6-20.3l33.5-23.5c6.7-4.7,14.8-7.5,22.8-9c8.9-1.6,17,2.2,23.4,8.1
		c12.4,11.5,19.2,26.4,24.5,42.3c3.4,10.3,11.7,17.9,22.9,19.5c17.9,2.6,36.7-0.8,52.9-8.3l0-1.4c-25.7,8.9-62.7,13.7-73.4-13
		l-5.7-14.3c-4.7-11.7-9.8-22.5-18.4-31.7c-10.2-10.9-24.3-12.6-38-6.2c-15.6,7.3-29.8,17.5-43.3,28.4
		c-14.6,11.8-2.7,27.7-15.9,45.4l-34.5,46.4c-12.8,15.2-28.5,26.8-44.7,38.3c-41,29.1-83.9,53.5-128.4,77.4c1-2.3,2.5-8.5,5.2-9.8
		c47.4-24,137.9-74.9,167.9-114.9l29.1-38.9c18.5-24.8,5.4-41,19.1-51l32.9-24c6.2-4.5,13.7-7.1,21-8.8
		c29.9-6.9,45.3,26.9,52.6,53.1c-0.6-25.3-17.4-63.3-42.7-62.7c-14.5,0.3-27.9,6.4-39.5,14.6L803.1,606
		c-12.3,10.1-0.6,25.5-18.4,49.7l-28,38.1c-25.3,34.3-78.8,67.6-116.7,90.1l-45.7,24l4.2-8.6c32.4-14.7,61.9-32.3,90.9-52.9
		c20.8-14.5,41-29.2,57-49l36.4-49.6c14.6-19.9,9-39.8,16.8-48.2c12.3-13.2,26.7-23.7,42.3-32.6c17.1-9.8,38.7-11.2,51.8,4.3
		c11.4,13.5,17.2,30,19.1,47.6c1,5,1.1,9.5,0.7,14c5.2,12.5,14.2,22.2,27.7,24.2c16.5,2.5,34.3,1.5,49.2-5.9
		c-15.5,2.8-29.7,4.9-44.9,2.2c-16.4-3-28.7-15.2-30.4-32.4c-1.9-19.3-6.6-37.7-16.5-54.5c-14.1-23.9-46.9-18.1-67.5-3.5l-28.7,23.3
		c-15.2,12.3-5.2,30.5-27.4,61.7l-28.2,39.8c-16.2,22.8-38.5,38.9-61.2,54.7c-26.9,18.8-53.3,36.4-83.4,49.4l4.8-8.3
		c29.4-14.1,56.2-30.8,82.3-50.5c18.7-14.1,36.5-28.5,50.9-47.1l33.7-48.3c17.5-25.1,12.2-49.2,29.9-63.1l29.6-23.3
		c11.6-9.1,26.8-12.6,41.3-10.1c14.2,2.5,25.8,11.2,30.1,24.7l9.1,28.7l-4.3-31.3c-2.2-16.3-15.6-28.6-33.2-29.2
		c-17-0.5-36.1,3.8-51.1,13c-11.6,7.1-20.9,17-30.5,26.5c-9.3,9.1-10,32.5-24.4,56.7c-12.2,20.5-25.1,40-40.4,58.4
		c-13.3,15.9-28.8,28.3-45.2,40.9c-23.3,17.9-47,33.3-74.3,46.3l4.4-8.4c28.2-14.8,54.1-31.9,78.5-52.3c19.1-14.8,34.3-32.2,48-52.1
		c13.2-19.2,25.9-38,33.9-60c4.8-13.1,8.7-26.3,18.2-36.9l13.1-12.3c-11.7,1.6-18.5,9.3-25,17.4c-7.2,9-8,19.3-12.7,29.8
		c-14.2,32.2-33.3,63.1-57.5,88.9c-26.7,28.5-59.1,49.6-92.1,69.2c1-3,2.6-7.7,5.6-9.7c28.2-17.8,54.9-36.7,78.2-60.9
		c25.2-26.2,45.5-57,59.1-90.7c3.8-9.3,5.7-17.8,10.9-26.6c-4.5,2.2-11,5.1-12.8,9.5l-12.3,31c-26.7,55.4-68.6,95.6-119.1,128.4
		c1.8-4.1,3.4-9.4,6-11.5c14.2-11.1,28.1-20.6,41.3-32.9c25.1-23.3,46-50.4,61.9-80.8l10.8-27l-11.2,7.9
		c-20.6,47.3-53.8,88.5-95.5,118.6c3.3-4.9,4.5-11.6,8.9-15.7c28-25.6,53.7-53.4,70.3-88.8c-8.9,6.7-16.2,14.1-22.6,22.5
		c-12,15.8-23.6,31.2-36.8,45.5l18.8-32.7c17.9-31.1,39.4-59.6,65.8-83.9c42.2-38.8,98.3-56.4,155.1-48.6
		c88.7,12.2,164.5,57.6,211.7,133.9c11.5,18.6,21,37.7,28.9,58c6.1,15.7,8.1,37-4.4,46.6c-6.2,4.7-13.6,6.7-21.1,4.6l-34.6-9.4
		c-43.9-9.8-89.3-3.8-130.2,14.9c-37.7,17.2-70.5,42.7-94.3,76.8l-43.1,68.4c-37.3-32.5-11.5-100.5,19.7-131.4
		c12-11.8,25.7-20.9,40.8-27.3l29.3-9.9c4.4-1.5,8.7-2,11.7-5.7l-25.3,7.8c-17.7,4.1-32.6,12.4-47.1,23
		c-14.4,10.4-25.4,22.3-34.6,37.6C788.4,836,775.6,886,811,912.9l-3.4,6.9c-21.2-11.2-32.3-32.6-29.2-57.1
		c3.9-31.3,18.5-60.9,40.4-83.8c5.6-5.8,12.8-9.3,18.9-14.2c15.2-12.1,31.9-20.1,50.4-25.6l28.6-8.4c2.9-0.9,5.7-1.9,6.8-4.7
		l-26.9,8.7c-23.2,5.5-44,14.3-62.9,29c-7.6,5.9-15.8,10.4-22.6,17.6c-17.7,18.8-30.4,41.6-37.5,66.4c-9.3,32.4-1.4,64.4,31.2,76.8
		l-2.8,5.4c-28.1-7-45.9-33.4-41.3-63.2c5-32,21.3-63.8,45.5-86.2c16.4-15.2,35.6-26.8,55.4-36.4c17.7-8.6,36.5-11.2,54.9-17.5
		l10.7-4.5l-0.7-0.9l-17.1,5.4c-16.9,5.3-34.3,8.1-50.5,15.8c-21.5,10.3-41.8,23.3-59.4,39.4c-21,19.2-34.8,44.6-43.9,71.1
		c-3.4,9.7-4.2,19.4-3.8,29.5c1,27,21.5,45.5,47.4,52l-1.8,3.9c-27.4-5.2-53.4-19.8-55.7-49.4c-1-12.7,0.6-25.5,5.4-37.6
		c9.9-24.5,23.4-47.5,42.9-65.9c20.3-19.2,43.5-35.4,69.4-46.2c16.9-7,34.3-10.3,51.6-15.5c7.2-2.2,14.4-3.4,20.3-8.1l-21.3,5.8
		l-51.4,14.7c-19.6,5.6-35.3,18.6-51.6,30.4c-26.9,19.6-47.9,44.5-62.8,74.3c-15.9,31.9-19.8,66.4,11.8,87.5
		c11.7,7.4,24,11.3,38.4,13l-0.5,2.7c-0.5,2.6-30.7-1.1-49.3-13.4c-24.8-16.3-29.1-42-18.4-69.1c15.2-38.5,41.4-69.8,74.4-94.5
		c18.2-13.6,35.6-27.9,57.7-34.9l54.9-14.2c9.4-2.4,18.5-4,25.8-10.6l-16.3,5.7l-61,13c-15.1,3.2-28.1,11.6-40.1,20.9l-29.4,22.7
		c-28.5,22-52.4,48.8-69.1,80.8c-15.5,29.7-18.6,59,9.5,80.4c17.3,11.6,37.1,16.9,58.6,17.2l-0.5,2.7c-14.2,0.4-28.1-0.6-42.3-4
		c-14.1-4.2-26.6-11.5-36.8-22c-18.4-19.1-12.7-46.8-0.5-69.5c15.9-29.6,37.7-54.7,63.9-75.9l45.9-37.1
		c12.8-10.4,27.3-19.5,43.5-22.9l43.1-6.2c15-2.2,29.4-5.1,41.4-13.9c-10.3,3.9-18.6,8.7-28.7,9.1l-41.1,1.7
		c-25.9,1.1-40,11.1-59.1,27.2l-43.4,36.5l-30.2,26c-19.7,18.9-36.3,40-48.3,64.6c-11.2,22.8-12.7,47.8,6.6,65.5
		c23.7,21.7,51.6,25.3,84,24.6c0.1,0.7-2.2,2.9-3.4,2.9L751,957c-23.6-1.6-45.1-10.8-62-26.9c-17.2-16.5-13.4-45.9-2.1-65.3
		c11.7-20.1,25.2-38.6,41.7-55c28.3-28.2,61.2-47.5,88-76c16.2-17.2,37-32.8,61.1-30.1c26.8,3.1,50.3,5.7,74.6-9.4l-0.2-1.3
		c-18.8,10-39.4,11.7-59.9,6.4c-8.4-0.7-16.5-5.8-25.4-4.6c-17.6,2.5-33.7,13.2-45.2,26.7c-12.7,15-25.5,28.1-40.9,40.2l-38.6,30.4
		c-25.6,20.1-47,44.1-63.8,72c-6.2,10.3-9.9,21-11.5,32.8c-2,15.3,3.9,28.8,15.8,38.7c19.4,16,43.9,24.4,69.3,25.3l33.1-1
		c-0.2,1.7-1.9,3.2-3.6,3.3l-33.3,1.8c-25.1,1.4-65-11.7-84.4-31.8c-17.5-18.1-11.8-45.3,1.2-65.7c19.8-31.3,45.6-57.4,75.5-79.2
		l41.6-32.5c14.7-11.5,26.8-25.1,37.9-40c7.9-10.7,17.6-17.8,29.3-23.7c27.3-13.8,38.8,4.9,66.9,6.8c15.2,1,30.2-3.1,42.2-11.9
		c-12.4,4.6-24,9.5-37.2,9c-25.8-0.8-41.1-25.1-62.3-16.3c-11.6,4.8-24.6,10.5-32.4,20.4l-24.7,31.5c-19.9,21.4-42.1,39.1-66.1,55.9
		c-30.6,21.3-57.2,46.8-78.6,77.2c-19,27-23.2,60.1,5.9,79.7c22.9,15.4,50.1,23.3,78.1,24.4l40.7-2.5c-0.3,2.1-2.2,3.7-4.4,3.9
		l-42.4,3.2c-35.5-0.8-96.4-15.7-105.7-52.4c-4-15.7,1-31.3,8.7-45.2c7.6-13.6,18-24,28.6-35.3c23.3-24.8,49.1-44.8,77.5-63.5
		c21.6-14.3,40.1-32.4,57.3-51.5l25.8-34.4c7.9-8,19.1-12.8,29-17.7c8.7-4.3,18.8-4.2,26.8,0.6l18.9,11.2c7,4.2,14.6,8,23.1,7.8
		c13.8-0.2,27.1-4.1,38.3-11.9c-25.3,8.1-37.5,15.8-59.2-0.2L885,667c-8.2-6-18.3-5.6-27.8-1.8l-33.9,20.1l-26.5,39.7
		c-17.3,17.8-34.1,36-55.2,49.6c-28.4,18.2-54.6,37.6-78.7,61.4C642.3,856.3,616,879.5,616,911c0,18.5,10.8,34.1,26.9,43.4
		c28.2,16.3,61.2,23.8,93.9,22.6l41.2-3.6c-0.4,3.1-3,3.6-6.3,4.1c-46,7.3-98.5,7.3-139.6-15.8c-30.8-17.4-41.5-50-22.4-81.1
		c7.2-11.8,16.2-22,26.8-31.1l45.2-38.8c16.7-14.3,34.8-24.9,53.3-36.8c22.1-14.2,40.3-32.6,58-51.9c11-14.3,20.2-28.4,29.1-43.9
		l32.9-19.1c11.8-5.6,24.8-4.4,34.7,4.3l18.5,16.2c8.1,7.1,18.5,8.7,28.8,6.7c11.8-2.4,23.5-4.9,33.2-12.3c-14,5.1-27.4,10-42.3,9.5
		c-20.9-0.6-26.9-23.2-46-32.5c-9.1-4.4-18.7-4.8-27.3,0.5l-35.3,21.7c-10.2,18.7-20.7,36.3-35.1,52.1
		c-15.8,17.2-32.6,33.8-52.6,46.1C705.3,787.7,680.9,804,656.9,824.4z M974.5,648.2c-12.4,0.1-24.3-0.8-34.5-7.3
		c-25.9-16.5-20.9-52.7-18.9-81.7c0.8-11.6-4.4-20.9-14-26.4c-5-2.8-10.7-5.2-16.7-1.2c13.8,3.3,23.4,14.7,24.6,29.3l0,34.9
		c0,4.7,1.4,10.4,2.1,16c1.8,15.3,9.7,30.1,24.7,35.6c17.6,6.4,37.5,5,54.4-1.9L974.5,648.2z M954.4,636.6
		c-27-11.4-26.9-45.6-21-72.5c2.6-12.4,0.9-23.8-6.7-34.2c-3.4-0.7-7.1-0.8-11.3,0.1c7.9,6.2,13.2,14,12.2,24l-2,19.8
		c-1.4,13.8-2.3,27.3,1.8,40.4c5,16.1,17.6,26.7,34.1,29.3c13.9,2.1,28.5,2.6,40.7-4.4C986.6,643.3,968.8,642.7,954.4,636.6z
		 M998.9,635.4c-14.4,2.7-29.5-1.1-41.5-8.8c-8.5-5.4-12.4-15.3-13.6-25.1c-3.3-26.2,10-47.8,0.7-70.3l-8.7-1.3
		c6.3,12.1,7.1,24.3,4.1,37.1c-5.5,23.4-5.7,53.6,16.4,64.9c13.6,6.9,36.5,10.3,48.9,2.4L998.9,635.4z M998.5,630.8
		c-11.1-0.2-21.1-4.2-29.8-9.4c-15.1-9-13.5-28.9-10.3-46.2c2.7-13.5,3.9-26.2,2.7-40.2c-2-1.5-4.5-2.2-7.6-2.3
		c7.1,27.8-14.3,66.6,4.6,87.2c10.1,10.9,38.1,18,52,9.4L998.5,630.8z M1009.8,626.2c-16.4,0.4-30.3-5.5-38.3-18.7
		c-3.2-8.8-2.8-18-1.1-27.3c3.3-13.9,5.1-26.9,5.4-41.6c-2.1-1.3-4.3-2.2-7.1-2.7c3,26-11.1,51.8-3.5,71.8
		C970.4,621.6,996,632.3,1009.8,626.2z M984.2,605.6c-3.6-8.5-1.6-17.8-0.6-26.2l5-36.6l-5.6-2.3l-5.8,41.7
		c-1,7.5-2.7,15.8,0.6,22.9c6.7,14.2,22.9,20.8,37.3,17.2C1002.7,621.9,989.3,617.8,984.2,605.6z M995.9,607.7
		c-7.8-15.5,2.6-35.8,3.4-58.8c0.1-1.9-4.3-4-4.9-3.5l-6.1,41.9c-1.3,8.7-0.5,17.4,5.5,24.1c4.9,5.6,13.4,8.9,21.4,8.2
		C1007.6,617.2,999.6,615.2,995.9,607.7z M1019.8,615.6c-6.2-0.8-11.5-3.4-14.9-8.2c-3.1-4.4-4.3-10.8-3-16.5l7.5-33.9
		c0.3-1.4,0.7-4.2-0.3-4.6l-3.7-1.7l-4.6,26.4c-1.2,6.9-2.9,13.7-2.7,20.7C998.5,609.2,1008.8,618.8,1019.8,615.6z M1008.4,590.6
		l9.9-33.2l-3-1.7c-0.5-0.3-1.1,2-1.3,2.6l-8.6,33.5c-0.8,8.5,1.1,17,10.3,19.6C1009.7,605.1,1005.9,599,1008.4,590.6z"/>
	<path class="st0" d="M766.6,995.3c-0.1,3-2.5,4.7-5.7,5.5c-26.7,7-52.6,13.5-80,17.9c-33.3,5.4-65.9,4.6-98.2-4.6
		c-28.9-8.3-52.7-26-67.6-52.5l7.3-14c25.4,60.5,105.4,69.8,164.9,61.8L766.6,995.3z"/>
	<path class="st0" d="M756.8,1009.3l-50.3,16c-20.7,6.6-41.6,10.1-63.4,11.4c-21.9,1.3-42.7-1.7-63.3-8.5
		c-28.3-9.3-51.6-27.2-67.6-52.3c-0.7-1.1-3.3-3.6-2.5-4.6l2.6-3.6c35.4,60.4,110.6,66.6,173.7,54.5l76.7-19.2
		C762.2,1006.6,760.2,1008.2,756.8,1009.3z"/>
	<path class="st0" d="M350.1,1488.4c-25.9,7.8-47.8,21.5-65.3,41.4c-0.4-0.1-1.9-1.2-1.6-1.6l1.8-2.1c16.9-19.7,38-32.6,62.5-40.6
		c31.5-10.2,62.4-18.7,95.2-23.5l42.3-7.6c-2.2,3.5-6.1,5.3-10.5,6.1l-56.2,9.6C394.9,1474.2,373.3,1481.3,350.1,1488.4z"/>
	<path class="st0" d="M344.8,1497.3c-22,6.3-40.2,19.1-55.8,34.5l-1.3,1.3c-0.3,0.2-1.4-0.6-1.3-0.9l0.8-2
		c15.1-16,33-27.3,53.6-35.4l72.4-20.3l62.5-11.3c-3.1,3.1-6.6,4.5-11,5.4l-56.4,10.6L344.8,1497.3z"/>
	<path class="st0" d="M293.7,1533.9l-2.2,1.9c-0.4,0.3-1.6-1.5-1.6-1.7c15.5-15.1,33.3-25.1,53.2-33c24.9-8,49.2-15.8,75-20.7
		l47.9-9.1c-3.4,3.8-7.9,5.5-13.4,6.3c-38.8,6-76.3,15-113,28.9C322.5,1512.9,307.5,1522.2,293.7,1533.9z"/>
	<path class="st0" d="M360.9,1506.3c-23.5,7.1-44.4,16.6-63.4,31.1l-3-0.8c14.5-12.7,31-20.9,48.9-28.3l66.3-19.4l45.2-8.9
		c-3.6,3.8-7.7,5.1-12.8,5.9C414.2,1490.4,388.1,1497.2,360.9,1506.3z"/>
	<path class="st0" d="M361,1513.5c-20.7,6.4-38.8,14.7-57.1,25.6c-1.3,0.8-2.9-2.9-0.7-2.4c18.4-12.8,37.9-20.6,58.9-27.4
		c26.8-8.6,52.8-16.2,81-20.1l-5.1,4.1C411.7,1497.8,386.9,1504.6,361,1513.5z"/>
	<path class="st0" d="M323.4,1535.6c-4.6,2.1-7.6,4.8-12.6,2.9c14.9-8.3,30-14.7,46.4-20.3c24.1-8.2,47.7-15.2,72.8-20.2
		c-5.4,4.3-11.3,6.1-18.2,7.8C381.5,1513.2,352.2,1522.8,323.4,1535.6z"/>
	<path class="st0" d="M346.2,1533.6c-6.7,2.3-12.6,4.5-19.6,4c26.6-11.1,53.4-20,81.4-27.5l-16.7,8.2L346.2,1533.6z"/>
	<path d="M1618,622.3l-45.6,3.1c-6.5,0.8-13.3-0.4-18.5-4.5c8.7,3.4,16.3,3.8,25.2,2.3c39.7-6.5,60,1.4,108.6-15.6
		c20.4-7.1,38.6-15.9,56.3-29.1c-6,7.7-14.5,11.1-22.1,16.4c-9.4,6.3-19.5,10.1-30.2,13.9c-14.7,5.3-29,10.2-44.7,11.3L1618,622.3z"
		/>
	<path d="M1594.6,648l-17.2,0.5c-14.4,0.5-29.1-1.4-42.6-6.5c16.4,3.5,31.2,6.2,47.6,4.7l82.5-7.8c16.3-1.5,30.9-6.5,44.7-15.3
		l17.5-10.7c-15.5,12.7-37.9,26.3-57.5,28.1L1594.6,648z"/>
	<path d="M1589.5,642.2c-14.2,1.2-26.9,1.4-39.6-1.8c4.6-0.7,8.7,0.2,13.1,0.4c18,0.7,35.4-2.7,53.3-3.4c19.7-0.8,38.1-2.9,57.5-6.6
		c17.6-3.3,32.5-10.8,48.3-19.9c-9.8,8.5-21,13.8-32.7,18.9c-15.2,4-30,6.7-45.8,8L1589.5,642.2z"/>
	<path d="M1583.4,636.3c-12.3,0.9-24.5,2.4-33.5-6.4c7.9,4,14.5,6,23.2,5.4l54.9-4.2l46-6c21.3-5.1,39.3-14.9,58.2-26.1
		c-13.7,11.2-29,20.4-46.3,25c-18.7,5-37.5,7.6-56.8,9L1583.4,636.3z"/>
	<path d="M1563.4,653.8c-10.5,0-20.5-3.3-29.5-6.5l31.2,5.1l22,0l28-1.4l57.4-6.5c16.5-1.9,29-11,43.6-18.5
		c-9.3,7.2-19.3,13.7-30.5,17.9c-14.6,5.4-30.1,5-45.4,6.6l-32.4,3.4L1563.4,653.8z"/>
	<path d="M1594.3,660.6l-19.5-0.1c-12.7-0.1-25.2-1.1-36.9-6.5c16.9,3.7,32.8,6.5,50.2,5l70.8-6.2c9.3-0.8,18.2-2,26.9-4.9l24-12.6
		c-26.2,22-45.2,19.5-76.9,22.2L1594.3,660.6z"/>
	<path d="M1566.9,665.6c-10.1,0-19.4-1.9-28-5.3l26.1,3.7l40.6-0.5l56.5-4.4c15.4-1.2,27.7-6.4,41.1-14.3
		c-7.7,7.3-17.1,11.2-26.8,15c-16,2.9-31.9,2.3-48,3.7l-23.7,2.1L1566.9,665.6z"/>
	<path d="M1621.4,670.2c-27.2,1.5-54,4.1-79.5-3.1c28.7,4,56.3,3.8,84.8,0.3l26-0.8c19.5-0.6,36.3-6.1,52.3-18.4
		c-3.3,5.6-9.2,7.3-14.2,10.5c-11.2,7.3-24.3,8.8-37.5,9.6L1621.4,670.2z"/>
	<path d="M1593.5,683.9c-19.8,1.8-38.7,0.1-56.6-5.8c17.4,2.3,33.7,5.9,51,4.7l49.1-3.5c21.7,0.4,41.1-3.3,60.1-14.7
		c-12.3,10.4-27.6,14.2-43.2,16.3l-30.6,0.3L1593.5,683.9z"/>
	<path d="M1619.9,687.3c-29.4,2.4-54.6,6.1-84.1-3c15,1.2,29.2,5.8,44.1,4.5l39.5-3.3l35.3-0.7c13.7-0.3,24.8-6.3,37.3-11.8
		c-11.1,8.5-24.5,11.8-38.3,14L1619.9,687.3z"/>
	<path d="M1566.7,677.6c-9,0-17.1-2.2-24.9-4.4c17.4,1.6,33.7,4.9,50.8,3.5l41.5-3.3l24.8-1.2c11.2-0.6,20.5-4.2,31.3-8.1
		c-14.6,9.9-32,11.1-49.3,11.2l-35.5,2.3L1566.7,677.6z"/>
	<path d="M1535.2,690.2l25.1,3.3c18.7,2.5,36.9-0.9,55.7-2.3l34.1-0.4l28.1-5.7c-12,5.8-25.4,8.3-39.1,7.8c-15.6-0.5-30.4,0.2-46,2
		C1573.3,697.2,1554.2,696,1535.2,690.2z"/>
	<path d="M1559.4,700.9l-28.5-4.5c3.2-0.3,7-0.3,10.1,0.4c35.8,7.8,57-1.8,89.5-0.5c19.4,2.9,37.6-2.4,55.6-10.2
		c-12.4,8.8-28,10.9-43.1,13.4c-20.1-3.4-39.1-0.9-59.1,1.3l-13.9,0.8L1559.4,700.9z"/>
	<path d="M1534.9,703.3c14-0.2,26.3,4.1,41.8,2.4l40.3-4.5l27,1.8l26.2-4.8c-8.7,3.8-18.3,7.4-28.1,6.5l-9.2-0.8
		c-12.6-1.1-24.6-1.3-37.1,0.9C1575.2,708.6,1555,708.2,1534.9,703.3z"/>
	<path d="M1638.5,624.8c7.5-0.5,14.1-1.4,20.5-0.2l-84,6.4c-9.7,0.4-19-0.7-26.3-7.1c8.8,4.1,16.6,5.7,26.3,5.1l51.8-3.4
		L1638.5,624.8z"/>
	<path d="M1598.8,729.1c-19.5,6.6-38.8,6.4-58.5,8.4l-17.8,1.8l-0.6-0.9l31-3.1c15.6-1.6,30.1-3.3,45.2-6.9
		c8.3-1.9,16.5-1.5,24.8-0.4l23,3l9-1.6c-4.2,2.5-9.6,3.1-14.9,2.7C1626.4,729.3,1613.4,728.5,1598.8,729.1z"/>
	<path d="M1651.2,735.3c-15.4,6.9-38.3-4.1-57.3,0.7c-18.2,4.6-36,7.4-54.6,8.5c-4.4,0.2-8.7,1.8-13.3,1.2l21.1-3.5
		c13.5-1,27.2-2.2,40-6.2c10.2-3.1,19.5-3.6,30.2-2.3l11.8,1.5C1636.6,736.1,1643.3,736.1,1651.2,735.3z"/>
	<path d="M1547.1,724.3l-18.1-0.5l0.5-0.8l43.4,0l29.2-5c10.2-1.7,20.7-1.5,30.7,1.3c10.2,2.8,18.3,0.9,29.1-3.5
		c-17.6,13.2-36.9,0.8-47.8,2.3l-41.1,6C1564.1,725.4,1555.8,724.5,1547.1,724.3z"/>
	<path d="M1594.5,741.6l-47.4,9.4l-23.2,3c6.2-2.3,12.4-2.6,19.2-3.9l51.9-10c14.8-2.8,31,4.7,51.2,1.1
		C1627.9,748.6,1611,738.3,1594.5,741.6z"/>
	<path d="M1616.5,723.1c-10.4-1.5-34.5,6.7-60.5,7.1l-30,0.5l13.1-1.8c19.9,0.9,39-1.1,58.4-5.5c24.7-5.5,39.7,5.3,59.8-0.3
		l-11.2,4.1L1616.5,723.1z"/>
	<path d="M1597.2,709.8c-19.9,4-39.3,4.9-58.3,0.5c4.1-0.3,8,0,12.1,0.6c31.2,4.4,50.8-8.2,83-2.8c6.2,1.1,12.7,1.4,18.8-0.4
		l19.3-5.7c-8.9,3.9-18.1,7.9-28.2,8.6l-15.9-1.9C1617.6,707.6,1608.1,707.6,1597.2,709.8z"/>
	<path d="M1533,716.4l11,0.3l17,1.1c23,1.4,45.6-10.4,73.1-3.8c9.6,2.3,17.6,0.6,27.7-3.1c-5.1,3.3-12,6.5-18.6,5.7l-30.2-3.5
		l-36.5,5.3C1561.8,720.6,1547.2,718.6,1533,716.4z"/>
	<path d="M1605,754.6c-8.9-1.7-17,0.3-25.3,2.2l-45.5,10.5c-2.8,0.7-5.4,1.6-8.4,1.3l31.2-7.6l42.1-8.9l20.9,3.5l21.5-3.7l0.7,0.9
		l-19.3,4.1C1617.3,758.1,1610.9,755.7,1605,754.6z"/>
	<path d="M1602.2,746.6l-27.3,5.2l-44.1,8.1c4.6-2.4,9.6-2.4,14.8-3.4l50.4-10.4c8.8-1.8,17.3,2.3,26.1,2.5l23-2.4
		C1631.4,750.8,1617.1,751.7,1602.2,746.6z"/>
	<path d="M1672.8,621.6l-13,0.2c11.9-2.8,23.3-5.4,34.7-10.3c16.2-4.6,29.1-13.9,43.6-22.4C1719.5,605.3,1696.9,615.1,1672.8,621.6z
		"/>
	<path d="M1598.4,760.5c-14.6,1.5-28,4.5-41.4,8.5l-26.2,5.9l28.2-8l40.8-8c11,4.7,21.6,3.7,33.9-0.1
		C1623.3,765.3,1611.2,765.1,1598.4,760.5z"/>
	<path d="M1585.5,776.4l-50.6,11.6c17-6.5,34.8-9.8,53-13.5c15.8,4.3,29.9,0.7,45.9-4.5C1619.5,777.7,1602.9,780,1585.5,776.4z"/>
	<path d="M1567.2,786.7l-39.4,11.2c17.5-7.6,35.9-12.5,55-15.3c12.8,2.9,24.6,1.7,37.2-1.7c-9.1,4.8-19.4,6-29.7,4.6
		C1582.8,784.4,1575.2,784.5,1567.2,786.7z"/>
	<path d="M1621.8,769.8c-11,0.4-21,0.2-31.9-1.2l-60,14.1c20.3-8.1,42.1-12.4,64.1-16.3c11,3.7,21.1,3.5,32.2,0.5L1621.8,769.8z"/>
	<path d="M1578.9,800.4c-13.7,1.3-26,3.9-39,7.4c16.3-7.9,34.9-8.6,53.1-10.2c5-0.4,9.5-1.2,14.2,0.1L1578.9,800.4z"/>
	<path d="M1578,816.9l-45.1,8c15.5-6.1,32.2-8.1,49-10.2l15.2-2.6C1591.1,814.9,1584.7,815.7,1578,816.9z"/>
	<path d="M1533.6,840.3l-20.4,5.6c13-6.1,27.3-8,42.1-10.4l25.8-4.2c-4.2,2.1-8.9,3.3-13.9,4L1533.6,840.3z"/>
	<path d="M1595,793.3c-19.1-1.9-36.7,2.2-55,7.8c13.1-7,28.2-8.4,42.9-10.3c9.3,2.6,17.9,1.2,27.3-0.5
		C1605.7,792.9,1600.5,793.1,1595,793.3z"/>
	<path d="M1578.8,808.4l-37.9,6.5c12.7-5.4,26.6-6.8,40.5-8.4l21.7-2.1C1595.5,807,1587.5,806.9,1578.8,808.4z"/>
	<path d="M1521.9,835.9c8.3-4.5,17.7-5.8,27.1-8l34-4.9c-3.8,3-8.1,2.7-12.8,3.3C1553.7,828.5,1538.1,831.5,1521.9,835.9z"/>
	<path d="M1537.4,856.2l-33.5,4.4l36.4-6.1l27.9-3.3c-6.4,3-13,3.5-20.1,4.1L1537.4,856.2z"/>
	<path d="M1536.3,864.5c-13.2,1.8-37.1,6-37.4-1.6l4.2,3.2c12.9,0.2,25.2-1.7,38-4l20-0.8C1553.2,863.9,1544.7,863.4,1536.3,864.5z"
		/>
	<path d="M1498.1,873.3l11.8,0.2l11.1-0.5l34.5-3.1l0.6,1l-32.2,3.3C1515.1,875.1,1506.8,876.2,1498.1,873.3z"/>
	<path d="M1549.5,846.4l-26.7,3.3c9.7-3.6,20.1-4.5,30.7-4.9l23.6-4.5C1568.9,844.7,1559.2,845.3,1549.5,846.4z"/>
	<path d="M1745.7,548.2c-6.2,5.2-11.7,11.4-20.2,11.6c12.9-7.3,23.2-15.4,33.6-26C1756,539.6,1750.9,543.8,1745.7,548.2z"/>
	<path d="M1237.2,1421.2c2.5-2,3.5-5.9,4.3-9.2c1.8,5.7,0.3,12.6-4.7,16.9c-12.7,10.6-26.5,19.3-41.9,25.1
		c-19.9,7.5-39.7,0.9-49.8-18.5c-6.6-12.8-12.2-26.3-22.2-37.4c-13.3-14.7-34.2-14.4-47.2-25.3l31.1,10.4
		c33.5,11.2,32.9,52.1,58,63.9C1186.8,1457.3,1218,1435.9,1237.2,1421.2z"/>
	<path d="M313.4,1474.8l-23.7,21.1c28.3-35.1,55.3-45.5,97.3-57.1c28-7.8,56-10.9,85-9.7l36.2-2.9c-7.4,2.8-15.3,4-23.8,4.3
		c-22.3,1-44.3,0.3-66.6,4.5c-23.3,4.3-45.3,11.3-67.5,19.2C336.7,1459.1,324.9,1465.9,313.4,1474.8z"/>
	<path d="M291.9,1487.8c14-17.6,30.3-32,51.5-41.5c29.3-13.2,60.4-19.5,92.6-21.5l14.1-0.9c8.2-0.5,16.2-1.3,24.3-0.3
		c11.4,1.5,22.1-0.2,33.7-1.4c-10.6,3.7-21.4,3.9-32.8,3.3c-45.7-2.1-104.9,8.3-145.8,31C315.7,1465.4,304.7,1476.3,291.9,1487.8z"
		/>
	<path d="M373,1431.9c-31.3,7.9-56.3,23.8-78,47.5c4.7-7.7,11.3-13.5,17.9-19.6c38.6-35.8,96.5-38.5,146.6-41.4l31.4,1l16.3-1.2
		c-8.7,3.4-17.4,2.5-26.8,2.2C444.3,1419.2,408,1423.1,373,1431.9z"/>
	<path d="M459.8,1415.5c-32,0.4-62.7,3.8-93.3,12.1c-20.8,5.6-37.8,15.3-54.6,28.9c10.8-13.8,26-21.5,41.7-27.9
		c13.6-4.7,26.9-8.4,41.4-9.6l70.3-5.5c6.3-0.5,12.7-1.3,18.7,0.4c7.1,2.1,14.2,0.7,22,0.4c-7.9,2.9-16.5,0.8-25.2,0.9L459.8,1415.5
		z"/>
	<path d="M304.7,1457.9c9-11.5,20.5-20.7,32.9-28.3c20.2-12.3,64.6-18,89.8-19.1l23.1-1.1l30.5-0.7l10.2-0.2l-19.2,1.8l-27,1
		l-15.9,0.9l-48.9,6.1c-13.4,1.7-25.8,6.5-38.1,11.7C327.9,1437.3,316.8,1447.4,304.7,1457.9z"/>
	<path d="M366.2,1415.7c-18,3.9-32,11.5-46.3,22.7c10.2-12.9,24.6-19.3,39.9-23.9c21-5.5,41.8-8.9,63.6-9.1l60.2-0.7l14.7-1.8
		l0.6,0.9l-14.1,2l-28.5,0.8l-32.9,0.9L366.2,1415.7z"/>
	<path d="M484.6,1379.4l-14.7,0.1c-9.9,0-19.2-1.1-29-3.1c-34.6-7.5-58.5-8.3-91,7.7c13.9-9.6,30.4-13.9,47.1-15.2
		c13.4-0.2,25.6,1.6,38.6,3.5l36,5.3c13.5,2,26.7-1.2,40.7-2.4C503.6,1378.5,494.5,1379.4,484.6,1379.4z"/>
	<path d="M452.3,1366.6c-30.3-7.5-57.8-11.9-86.3,0.6c12.1-8.8,27.1-10.1,42.1-10.5c13.1,0.8,25.9,2.1,38.6,5.5
		c24.1,6.4,47.5,6,72.5,1.9C497.8,1370.8,475.1,1370.1,452.3,1366.6z"/>
	<path d="M483.5,1362.9c-10.4,0.8-19.3-0.3-28.9-2.4c-33.2-7.4-60.2-13.2-91.7,3.6c10.5-8.9,24-11,37.5-12.8
		c31.5-3,58.7,11.2,91,10.2l31.7-3.3C510.8,1362.7,497.5,1363.4,483.5,1362.9z"/>
	<path d="M522.9,1353.3c-24.3,6.7-49.4,5.7-74.3-0.5c-15.1-3.8-30-5.7-45.1-5.8c-12.4,1.8-23,4.5-34.7,8.6
		c47.3-25.4,89.5,3.5,128.1,0L522.9,1353.3z"/>
	<path d="M453.6,1347.2c-31-7.9-50.6-8.2-80.7,1.6c48.2-24,90.9,4.2,125.2,1.1l28.2-2.6C502.4,1353.9,478.2,1353.5,453.6,1347.2z"/>
	<path d="M486.1,1384.3c-8.1,1.3-16,0.5-24.1,0.1c-15.2-0.8-29.7-2.5-44.5-5.6c-24.1-5-46.4,0-68.8,10.3
		c17.3-11.8,38.2-15.2,59.4-14.1c15.8,0.8,30.8,5.2,46.7,7c18.7,2,36.6,1.6,55.1-1.9C502.7,1383.5,494.5,1384,486.1,1384.3z"/>
	<path d="M323.2,1429.8c14.6-15.4,35.4-24.1,57-25.8l41.9-3.3l28.3-0.3l33.5,0.2l14.6-1.8l0.6,0.8l-14,2.1l-64.5,0.6
		c-21,0.2-41.1,3.6-61.2,8.7C345.9,1415.3,334.9,1421.4,323.2,1429.8z"/>
	<path d="M514.1,1370.2c-22,6.3-52.5,4.6-75.8-0.5c-27.1-5.9-49.1-6.5-75.5,3.3c13.1-8.4,28.5-10.4,44.2-10.4
		c25.9,0.4,49.3,11.1,75,9.5L514.1,1370.2z"/>
	<path d="M527.9,1341.3c-22.7,6.7-46.6,6-70,0.1c-15.2-3.8-30.2-6.5-45.5-6.1c-12.2,0.3-22.7,4-34.6,6.5
		c23.6-10.7,49.6-10.8,74.9-4.7c17.5,4.3,35,8.1,52.8,6.4L527.9,1341.3z"/>
	<path d="M531.1,1335.3c-23.2,6-43.1,6.3-66.9,0.6c-14-3.3-27.6-6.4-42.2-6.9c-13.9-0.4-26.5,3.7-40.1,6.8
		c23.2-10.5,49.2-11.4,74-4.7c16,3.5,31.6,8,47.9,6.6L531.1,1335.3z"/>
	<path d="M451.2,1397.4l-27.8,0l-41.8,3.1c-19,1.4-35.6,8.3-51.7,18.7c7.6-7.8,17.2-12.6,27.3-16.1c21.2-5.8,42.6-6.4,64.4-7.7
		l26.3,0.3l14.5,0.9c12.6,0.8,24.7-0.8,37.7-1.4c-4.8,1.2-10,2.6-15.3,2.5L451.2,1397.4z"/>
	<path d="M333.2,1411.9c6.8-6.9,16.2-11.1,25.7-14c21.8-6.6,43.5-7.1,66.1-7.2l13-0.1l18,1.1l35,0l16.2-2.5
		c-13.6,4.9-28.2,5.4-43.2,4.5l-17.9-1.1l-29.3-0.2c-16.3,1.3-32.4,1.3-48.4,4.7C355.3,1399.4,345,1405,333.2,1411.9z"/>
	<path d="M492.4,1333.5c-13.2-1.2-25.4-3.7-37.8-6.9c-24.5-6.1-47.8-4.4-71.7,4.4c24.4-12.4,52.9-12.7,79.4-5.6
		c23,6.2,45.1,7.4,68.9,3.4C519,1334.2,506.4,1332.3,492.4,1333.5z"/>
	<path d="M502.5,1320.1c-7.5,0.3-14.1-0.1-20.8-1.6l-29.5-6.6c-23.1-5-44.7-0.4-66.4,8.9c24.2-14.6,53.6-16.3,80.9-8.7
		c22.4,6.3,44.2,7.7,67.5,3.9C524.3,1320.1,513.8,1320.1,502.5,1320.1z"/>
	<path d="M467.3,1322.5c-14-3.7-27.1-6.1-40.8-6c-13.3,0.1-24.6,4.2-37.7,7.4c23.7-11.9,50.7-11.8,76.1-5.1
		c16.2,4.3,32.3,7.1,48.8,5.8l17.6-1.4C510.2,1328.9,489,1328.2,467.3,1322.5z"/>
	<path d="M536.9,1309.4c-21.1,6.4-43.1,5.8-64.8-0.1c-13.8-3.8-27.8-6.4-41.8-6c-13.1,0.4-23.9,5.1-36.4,8.7
		c47.8-26.2,83.8,3.4,121.6-0.5L536.9,1309.4z"/>
	<path d="M475,1388.9c-18.1,0.7-35.4-1.1-52.9-4.9c-10.5-2.3-20.4-2.3-31-1c-16.9,0.1-31.6,6.8-47.3,12.6
		c20.9-12.6,46.6-18.2,71.1-14.2c30.9,5,56.1,8.8,88.3,4.8C494.2,1389.2,484.8,1389.2,475,1388.9z"/>
	<path d="M535.2,1303.1c-38.9,12.5-67.5-6.8-100.7-6.7c-11.3,0-20.8,4.1-31.6,6.6c22.9-12.5,48.7-9.3,73.8-2.6
		C496.2,1305.6,514.8,1306.1,535.2,1303.1z"/>
	<path d="M474.3,1295.4c-15.8-3.5-30.4-6.9-46.1-5l-16.3,3.6c10.2-5.9,21.3-5.9,33.3-6.3l36.3,6.7c18.3,4.7,35.8,4.6,54.7,1.7
		C516.2,1302.5,495.3,1300.7,474.3,1295.4z"/>
	<path d="M493.5,1292.1l-45.3-8.9c-11.3-2.2-21.4,0.7-32.3,3.9c18.3-10.8,45.1-5.2,66.5,0.3c18.1,4.6,35.9,4.8,54.6,1.8
		C523.5,1294.4,509,1293.4,493.5,1292.1z"/>
	<path d="M483.8,1282.8l-25.9-5.6c-15.5-3.4-29.5-0.6-44.7,5.9c21.1-13.7,43.1-9.2,67.6-3c18.7,4.7,37.2,4.9,56.3,2.2
		C520.3,1288.2,501.9,1286.7,483.8,1282.8z"/>
	<path d="M539.2,1274.4c-13.9,5.7-29.7,5.6-45.1,3.5l-29.2-6.7c-12.3-2.8-23.4-2.7-36-0.2c11.4-5.1,23.6-4.1,35.9-1.6l34,7
		C512.3,1278.1,525.4,1276.7,539.2,1274.4z"/>
	<path d="M503.2,1271.8c-27.5-2.3-44.1-15.3-72.3-6.9c14.7-7.1,31.3-3.9,47.1-0.1c21.1,5.1,41.8,6.4,63.1,1.3
		C529.7,1271.9,516.7,1272.1,503.2,1271.8z"/>
	<path d="M544.8,1257.3c-7.4,4.2-16.2,5.3-25.3,6.4c-16.3,1.5-32.1-1.8-47.8-6.2c-10.9-3-20.7-2.7-31.8-0.5
		c9.6-4.4,20.2-3.4,30.8-1.5C496.8,1260.8,517.3,1265.2,544.8,1257.3z"/>
	<path d="M519.2,1255.5l-9.5,0.1c-22.8,0.2-42.5-11.3-67.8-4.7c9-4.6,19-4.4,29.1-2.9c15.7,2.3,31,5.6,46.5,5.6l26.6-3.3
		C536.5,1254,527.9,1255.4,519.2,1255.5z"/>
	<path d="M390.9,1388.5c-19.3,0.4-36.5,6.5-52.9,15.6c23.3-18.5,63.5-20.4,92.1-16.4L390.9,1388.5z"/>
	<path d="M542.8,1243.3c-17.2,5.4-36.1,4.4-54.7,1.4c-13.3-2.2-25.6-3.9-39.3-1.9c8.6-3.3,17.7-3.3,27.2-1.7
		C498.2,1244.9,519.4,1246.6,542.8,1243.3z"/>
	<path d="M657.8,1072.3c-3.5,0.5-6.2,0.5-9.1,0.1c-12.7-0.8-25.7-1.1-36.9-7.6c35.6,11.2,70.7,7.7,103.3-10.1
		C698.6,1066.8,678.4,1071.9,657.8,1072.3z"/>
	<path d="M526.6,1238.4l-13.7,0.1L485,1236c-11.6-1-22.6-1.7-34.1,0.7c6.5-3,14.4-4,21.8-3.4l32.4,2.8c13.9,1.2,26.9,0.8,41.1-1
		C540.2,1237.9,533.8,1238.4,526.6,1238.4z"/>
	<path d="M549.8,1228.5c-18,3.5-36.8,0.7-55.7-0.4l-16.2-0.9l-14,0.4c12-2.6,24.3-1.6,37-0.8l19.2,1.3
		C529.9,1229.3,539,1228.9,549.8,1228.5z"/>
	<path d="M548.9,1221.7c-8.9,0.6-18.2,0.6-27.9-0.7c-17.4-2.4-33.5-2.3-51-0.1c19.4-5.2,39.7-2.7,60-0.9L548.9,1221.7z"/>
	<path d="M547.8,1212.6c-5.2,0.6-10.3,0.2-15.8-0.5c-15.9-2.1-30.9-2.6-47-1.2c12.6-2.9,25.8-2.3,39-0.9L547.8,1212.6z"/>
	<path d="M954.4,636.6c14.3,6.1,32.2,6.7,47.8,2.6c-12.1,7.1-26.8,6.5-40.7,4.4c-16.5-2.5-29.1-13.2-34.1-29.3
		c-4.1-13.1-3.2-26.6-1.8-40.4l2-19.8c1-10-4.3-17.8-12.2-24c4.2-1,7.9-0.8,11.3-0.1c7.6,10.4,9.3,21.8,6.7,34.2
		C927.5,591,927.5,625.2,954.4,636.6z"/>
	<path d="M974.5,648.2l21.8-2.7c-16.9,7-36.9,8.3-54.4,1.9c-15-5.5-22.9-20.3-24.7-35.6c-0.7-5.7-2.1-11.3-2.1-16l0-34.9
		c-1.2-14.5-10.8-25.9-24.6-29.3c6.1-3.9,11.8-1.6,16.7,1.2c9.6,5.5,14.8,14.8,14,26.4c-2,29.1-7,65.2,18.9,81.7
		C950.1,647.3,962.1,648.3,974.5,648.2z"/>
	<path d="M998.9,635.4l6.1-1.1c-12.4,7.9-35.3,4.6-48.9-2.4c-22.1-11.3-21.8-41.5-16.4-64.9c3-12.9,2.2-25-4.1-37.1l8.7,1.3
		c9.3,22.6-4,44.1-0.7,70.3c1.2,9.8,5.1,19.7,13.6,25.1C969.4,634.3,984.6,638.1,998.9,635.4z"/>
	<path d="M998.5,630.8l11.7-1.6c-13.9,8.6-42,1.6-52-9.4c-18.9-20.6,2.5-59.4-4.6-87.2c3,0,5.6,0.8,7.6,2.3
		c1.1,14-0.1,26.7-2.7,40.2c-3.1,17.3-4.8,37.2,10.3,46.2C977.4,626.6,987.4,630.6,998.5,630.8z"/>
	<path d="M1009.8,626.2c-13.8,6.1-39.4-4.6-44.7-18.4c-7.6-20,6.5-45.8,3.5-71.8c2.9,0.6,5.1,1.4,7.1,2.7
		c-0.3,14.7-2.1,27.7-5.4,41.6c-1.7,9.2-2.1,18.5,1.1,27.3C979.6,620.7,993.4,626.6,1009.8,626.2z"/>
	<path d="M984.2,605.6c5.2,12.2,18.5,16.3,30.9,16.8c-14.4,3.7-30.6-2.9-37.3-17.2c-3.3-7.1-1.7-15.4-0.6-22.9l5.8-41.7l5.6,2.3
		l-5,36.6C982.6,587.8,980.5,597.1,984.2,605.6z"/>
	<path d="M995.9,607.7c3.8,7.4,11.7,9.4,19.3,11.9c-8,0.7-16.5-2.6-21.4-8.2c-5.9-6.7-6.7-15.5-5.5-24.1l6.1-41.9
		c0.7-0.5,5,1.6,4.9,3.5C998.5,571.9,988.1,592.3,995.9,607.7z"/>
	<path d="M1019.8,615.6c-11,3.3-21.3-6.4-21.6-17.9c-0.2-7,1.5-13.8,2.7-20.7l4.6-26.4l3.7,1.7c1,0.5,0.6,3.3,0.3,4.6l-7.5,33.9
		c-1.3,5.7-0.1,12.1,3,16.5C1008.3,612.2,1013.6,614.7,1019.8,615.6z"/>
	<path d="M1008.4,590.6c-2.5,8.4,1.3,14.5,7.3,20.8c-9.2-2.6-11.1-11.1-10.3-19.6l8.6-33.5c0.2-0.6,0.8-3,1.3-2.6l3,1.7
		L1008.4,590.6z"/>
</g>
</svg>
